<svg id="my-svg" width="100%" xmlns="http://www.w3.org/2000/svg" xmlns:xlink="http://www.w3.org/1999/xlink" class="flowchart" style="max-width: 2130.62px; background-color: white;" viewBox="0 0 2130.625 1177" role="graphics-document document" aria-roledescription="flowchart-v2"><style>#my-svg{font-family:"trebuchet ms",verdana,arial,sans-serif;font-size:16px;fill:#333;}@keyframes edge-animation-frame{from{stroke-dashoffset:0;}}@keyframes dash{to{stroke-dashoffset:0;}}#my-svg .edge-animation-slow{stroke-dasharray:9,5!important;stroke-dashoffset:900;animation:dash 50s linear infinite;stroke-linecap:round;}#my-svg .edge-animation-fast{stroke-dasharray:9,5!important;stroke-dashoffset:900;animation:dash 20s linear infinite;stroke-linecap:round;}#my-svg .error-icon{fill:#552222;}#my-svg .error-text{fill:#552222;stroke:#552222;}#my-svg .edge-thickness-normal{stroke-width:1px;}#my-svg .edge-thickness-thick{stroke-width:3.5px;}#my-svg .edge-pattern-solid{stroke-dasharray:0;}#my-svg .edge-thickness-invisible{stroke-width:0;fill:none;}#my-svg .edge-pattern-dashed{stroke-dasharray:3;}#my-svg .edge-pattern-dotted{stroke-dasharray:2;}#my-svg .marker{fill:#333333;stroke:#333333;}#my-svg .marker.cross{stroke:#333333;}#my-svg svg{font-family:"trebuchet ms",verdana,arial,sans-serif;font-size:16px;}#my-svg p{margin:0;}#my-svg .label{font-family:"trebuchet ms",verdana,arial,sans-serif;color:#333;}#my-svg .cluster-label text{fill:#333;}#my-svg .cluster-label span{color:#333;}#my-svg .cluster-label span p{background-color:transparent;}#my-svg .label text,#my-svg span{fill:#333;color:#333;}#my-svg .node rect,#my-svg .node circle,#my-svg .node ellipse,#my-svg .node polygon,#my-svg .node path{fill:#ECECFF;stroke:#9370DB;stroke-width:1px;}#my-svg .rough-node .label text,#my-svg .node .label text,#my-svg .image-shape .label,#my-svg .icon-shape .label{text-anchor:middle;}#my-svg .node .katex path{fill:#000;stroke:#000;stroke-width:1px;}#my-svg .rough-node .label,#my-svg .node .label,#my-svg .image-shape .label,#my-svg .icon-shape .label{text-align:center;}#my-svg .node.clickable{cursor:pointer;}#my-svg .root .anchor path{fill:#333333!important;stroke-width:0;stroke:#333333;}#my-svg .arrowheadPath{fill:#333333;}#my-svg .edgePath .path{stroke:#333333;stroke-width:1px;}#my-svg .flowchart-link{stroke:#333333;fill:none;}#my-svg .edgeLabel{background-color:rgba(232,232,232, 0.8);text-align:center;}#my-svg .edgeLabel p{background-color:rgba(232,232,232, 0.8);}#my-svg .edgeLabel rect{opacity:0.5;background-color:rgba(232,232,232, 0.8);fill:rgba(232,232,232, 0.8);}#my-svg .labelBkg{background-color:rgba(232, 232, 232, 0.5);}#my-svg .cluster rect{fill:#ffffde;stroke:#aaaa33;stroke-width:1px;}#my-svg .cluster text{fill:#333;}#my-svg .cluster span{color:#333;}#my-svg div.mermaidTooltip{position:absolute;text-align:center;max-width:200px;padding:2px;font-family:"trebuchet ms",verdana,arial,sans-serif;font-size:12px;background:hsl(80, 100%, 96.2745098039%);border:1px solid #aaaa33;border-radius:2px;pointer-events:none;z-index:100;}#my-svg .flowchartTitleText{text-anchor:middle;font-size:18px;fill:#333;}#my-svg rect.text{fill:none;stroke-width:0;}#my-svg .icon-shape,#my-svg .image-shape{background-color:rgba(232,232,232, 0.8);text-align:center;}#my-svg .icon-shape p,#my-svg .image-shape p{background-color:rgba(232,232,232, 0.8);padding:2px;}#my-svg .icon-shape .label rect,#my-svg .image-shape .label rect{opacity:0.5;background-color:rgba(232,232,232, 0.8);fill:rgba(232,232,232, 0.8);}#my-svg .label-icon{display:inline-block;height:1em;overflow:visible;vertical-align:-0.125em;}#my-svg .node .label-icon path{fill:currentColor;stroke:revert;stroke-width:revert;}#my-svg .node .neo-node{stroke:#9370DB;}#my-svg [data-look="neo"].node rect,#my-svg [data-look="neo"].cluster rect,#my-svg [data-look="neo"].node polygon{stroke:#9370DB;filter:drop-shadow(1px 2px 2px rgba(185, 185, 185, 1));}#my-svg [data-look="neo"].node path{stroke:#9370DB;stroke-width:1px;}#my-svg [data-look="neo"].node .outer-path{filter:drop-shadow(1px 2px 2px rgba(185, 185, 185, 1));}#my-svg [data-look="neo"].node .neo-line path{stroke:#9370DB;filter:none;}#my-svg [data-look="neo"].node circle{stroke:#9370DB;filter:drop-shadow(1px 2px 2px rgba(185, 185, 185, 1));}#my-svg [data-look="neo"].node circle .state-start{fill:#000000;}#my-svg [data-look="neo"].icon-shape .icon{fill:#9370DB;filter:drop-shadow(1px 2px 2px rgba(185, 185, 185, 1));}#my-svg [data-look="neo"].icon-shape .icon-neo path{stroke:#9370DB;filter:drop-shadow(1px 2px 2px rgba(185, 185, 185, 1));}#my-svg :root{--mermaid-font-family:"trebuchet ms",verdana,arial,sans-serif;}</style><g><marker id="my-svg_flowchart-v2-pointEnd" class="marker flowchart-v2" viewBox="0 0 10 10" refX="5" refY="5" markerUnits="userSpaceOnUse" markerWidth="8" markerHeight="8" orient="auto"><path d="M 0 0 L 10 5 L 0 10 z" class="arrowMarkerPath" style="stroke-width: 1; stroke-dasharray: 1, 0;"/></marker><marker id="my-svg_flowchart-v2-pointStart" class="marker flowchart-v2" viewBox="0 0 10 10" refX="4.5" refY="5" markerUnits="userSpaceOnUse" markerWidth="8" markerHeight="8" orient="auto"><path d="M 0 5 L 10 10 L 10 0 z" class="arrowMarkerPath" style="stroke-width: 1; stroke-dasharray: 1, 0;"/></marker><marker id="my-svg_flowchart-v2-pointEnd-margin" class="marker flowchart-v2" viewBox="0 0 11.5 14" refX="11.5" refY="7" markerUnits="userSpaceOnUse" markerWidth="10.5" markerHeight="14" orient="auto"><path d="M 0 0 L 11.5 7 L 0 14 z" class="arrowMarkerPath" style="stroke-width: 0; stroke-dasharray: 1, 0;"/></marker><marker id="my-svg_flowchart-v2-pointStart-margin" class="marker flowchart-v2" viewBox="0 0 11.5 14" refX="1" refY="7" markerUnits="userSpaceOnUse" markerWidth="11.5" markerHeight="14" orient="auto"><polygon points="0,7 11.5,14 11.5,0" class="arrowMarkerPath" style="stroke-width: 0; stroke-dasharray: 1, 0;"/></marker><marker id="my-svg_flowchart-v2-circleEnd" class="marker flowchart-v2" viewBox="0 0 10 10" refX="11" refY="5" markerUnits="userSpaceOnUse" markerWidth="11" markerHeight="11" orient="auto"><circle cx="5" cy="5" r="5" class="arrowMarkerPath" style="stroke-width: 1; stroke-dasharray: 1, 0;"/></marker><marker id="my-svg_flowchart-v2-circleStart" class="marker flowchart-v2" viewBox="0 0 10 10" refX="-1" refY="5" markerUnits="userSpaceOnUse" markerWidth="11" markerHeight="11" orient="auto"><circle cx="5" cy="5" r="5" class="arrowMarkerPath" style="stroke-width: 1; stroke-dasharray: 1, 0;"/></marker><marker id="my-svg_flowchart-v2-circleEnd-margin" class="marker flowchart-v2" viewBox="0 0 10 10" refY="5" refX="12.25" markerUnits="userSpaceOnUse" markerWidth="14" markerHeight="14" orient="auto"><circle cx="5" cy="5" r="5" class="arrowMarkerPath" style="stroke-width: 0; stroke-dasharray: 1, 0;"/></marker><marker id="my-svg_flowchart-v2-circleStart-margin" class="marker flowchart-v2" viewBox="0 0 10 10" refX="-2" refY="5" markerUnits="userSpaceOnUse" markerWidth="14" markerHeight="14" orient="auto"><circle cx="5" cy="5" r="5" class="arrowMarkerPath" style="stroke-width: 0; stroke-dasharray: 1, 0;"/></marker><marker id="my-svg_flowchart-v2-crossEnd" class="marker cross flowchart-v2" viewBox="0 0 11 11" refX="12" refY="5.2" markerUnits="userSpaceOnUse" markerWidth="11" markerHeight="11" orient="auto"><path d="M 1,1 l 9,9 M 10,1 l -9,9" class="arrowMarkerPath" style="stroke-width: 2; stroke-dasharray: 1, 0;"/></marker><marker id="my-svg_flowchart-v2-crossStart" class="marker cross flowchart-v2" viewBox="0 0 11 11" refX="-1" refY="5.2" markerUnits="userSpaceOnUse" markerWidth="11" markerHeight="11" orient="auto"><path d="M 1,1 l 9,9 M 10,1 l -9,9" class="arrowMarkerPath" style="stroke-width: 2; stroke-dasharray: 1, 0;"/></marker><marker id="my-svg_flowchart-v2-crossEnd-margin" class="marker cross flowchart-v2" viewBox="0 0 15 15" refX="17.7" refY="7.5" markerUnits="userSpaceOnUse" markerWidth="12" markerHeight="12" orient="auto"><path d="M 1,1 L 14,14 M 1,14 L 14,1" class="arrowMarkerPath" style="stroke-width: 2.5;"/></marker><marker id="my-svg_flowchart-v2-crossStart-margin" class="marker cross flowchart-v2" viewBox="0 0 15 15" refX="-3.5" refY="7.5" markerUnits="userSpaceOnUse" markerWidth="12" markerHeight="12" orient="auto"><path d="M 1,1 L 14,14 M 1,14 L 14,1" class="arrowMarkerPath" style="stroke-width: 2.5; stroke-dasharray: 1, 0;"/></marker><g class="root"><g class="clusters"><g class="cluster" id="my-svg-BINARY" data-look="classic"><rect style="" x="8" y="97" width="1803.015625" height="1072"/><g class="cluster-label" transform="translate(839.25, 97)"><foreignObject width="140.515625" height="24"><div xmlns="http://www.w3.org/1999/xhtml" style="display: table-cell; white-space: nowrap; line-height: 1.5;"><span class="nodeLabel"><p>Single Binary — api</p></span></div></foreignObject></g></g><g class="cluster" id="my-svg-WATCH" data-look="classic"><rect style="" x="923.3359375" y="122" width="867.6796875" height="426"/><g class="cluster-label" transform="translate(1300.69921875, 122)"><foreignObject width="112.953125" height="24"><div xmlns="http://www.w3.org/1999/xhtml" style="display: table-cell; white-space: nowrap; line-height: 1.5;"><span class="nodeLabel"><p>internal/watcher</p></span></div></foreignObject></g></g><g class="cluster" id="my-svg-MAIL" data-look="classic"><rect style="" x="1117.90234375" y="622" width="335.59375" height="152"/><g class="cluster-label" transform="translate(1242.56640625, 622)"><foreignObject width="86.265625" height="24"><div xmlns="http://www.w3.org/1999/xhtml" style="display: table-cell; white-space: nowrap; line-height: 1.5;"><span class="nodeLabel"><p>internal/mail</p></span></div></foreignObject></g></g><g class="cluster" id="my-svg-STR" data-look="classic"><rect style="" x="504.890625" y="622" width="519.265625" height="152"/><g class="cluster-label" transform="translate(718.2734375, 622)"><foreignObject width="92.5" height="24"><div xmlns="http://www.w3.org/1999/xhtml" style="display: table-cell; white-space: nowrap; line-height: 1.5;"><span class="nodeLabel"><p>internal/store</p></span></div></foreignObject></g></g><g class="cluster" id="my-svg-SVC" data-look="classic"><rect style="" x="150.5" y="348" width="752.8359375" height="200"/><g class="cluster-label" transform="translate(473.11328125, 348)"><foreignObject width="107.609375" height="24"><div xmlns="http://www.w3.org/1999/xhtml" style="display: table-cell; white-space: nowrap; line-height: 1.5;"><span class="nodeLabel"><p>internal/service</p></span></div></foreignObject></g></g><g class="cluster" id="my-svg-HDL" data-look="classic"><rect style="" x="28" y="122" width="626.87109375" height="152"/><g class="cluster-label" transform="translate(191.787109375, 122)"><foreignObject width="299.296875" height="24"><div xmlns="http://www.w3.org/1999/xhtml" style="display: table-cell; white-space: nowrap; line-height: 1.5;"><span class="nodeLabel"><p>internal/http/handler  +  internal/http/models</p></span></div></foreignObject></g></g><g class="cluster" id="my-svg-DOMAIN" data-look="classic"><rect style="" x="28" y="848" width="852.13671875" height="296"/><g class="cluster-label" transform="translate(250.037109375, 848)"><foreignObject width="408.0625" height="24"><div xmlns="http://www.w3.org/1999/xhtml" style="display: table-cell; white-space: nowrap; line-height: 1.5;"><span class="nodeLabel"><p>internal/domain  ⚠️  god-package — ALL layers import this</p></span></div></foreignObject></g></g></g><g class="edgePaths"><path d="M241.969,47.5L241.885,51.583C241.802,55.667,241.635,63.833,241.552,72.083C241.469,80.333,241.469,88.667,241.469,97C241.469,105.333,241.469,113.667,241.469,121.333C241.469,129,241.469,136,241.469,139.5L241.469,143" id="my-svg-L_HTTP_H_0" class="edge-thickness-normal edge-pattern-solid edge-thickness-normal edge-pattern-solid flowchart-link" style=";" data-edge="true" data-et="edge" data-id="L_HTTP_H_0" data-points="W3sieCI6MjQxLjk2ODc1LCJ5Ijo0Ny41fSx7IngiOjI0MS40Njg3NSwieSI6NzJ9LHsieCI6MjQxLjQ2ODc1LCJ5Ijo5N30seyJ4IjoyNDEuNDY4NzUsInkiOjEyMn0seyJ4IjoyNDEuNDY4NzUsInkiOjE0N31d" data-look="classic" marker-end="url(#my-svg_flowchart-v2-pointEnd)"/><path d="M371.469,223.769L413.702,232.141C455.936,240.513,540.404,257.256,582.637,271.795C624.871,286.333,624.871,298.667,624.871,311C624.871,323.333,624.871,335.667,624.871,345.333C624.871,355,624.871,362,624.871,365.5L624.871,369" id="my-svg-L_H_S_0" class="edge-thickness-normal edge-pattern-solid edge-thickness-normal edge-pattern-solid flowchart-link" style=";" data-edge="true" data-et="edge" data-id="L_H_S_0" data-points="W3sieCI6MzcxLjQ2ODc1LCJ5IjoyMjMuNzY5MjczODczOTI4OTR9LHsieCI6NjI0Ljg3MTA5Mzc1LCJ5IjoyNzR9LHsieCI6NjI0Ljg3MTA5Mzc1LCJ5IjozMTF9LHsieCI6NjI0Ljg3MTA5Mzc1LCJ5IjozNDh9LHsieCI6NjI0Ljg3MTA5Mzc1LCJ5IjozNzN9XQ==" data-look="classic" marker-end="url(#my-svg_flowchart-v2-pointEnd)"/><path d="M457.934,507.107L438.684,513.922C419.435,520.738,380.936,534.369,404.368,547.351C427.799,560.333,513.161,572.667,555.842,585C598.523,597.333,598.523,609.667,603.902,623.455C609.281,637.244,620.039,652.488,625.417,660.11L630.796,667.732" id="my-svg-L_S_SS_0" class="edge-thickness-normal edge-pattern-solid edge-thickness-normal edge-pattern-solid flowchart-link" style=";" data-edge="true" data-et="edge" data-id="L_S_SS_0" data-points="W3sieCI6NDU3LjkzMzU5Mzc1LCJ5Ijo1MDcuMTA2ODE0Mzc4Mzc5ODV9LHsieCI6MzQyLjQzNzUsInkiOjU0OH0seyJ4Ijo1OTguNTIzNDM3NSwieSI6NTg1fSx7IngiOjU5OC41MjM0Mzc1LCJ5Ijo2MjJ9LHsieCI6NjMzLjEwMjQ4NzY2NDQ3MzYsInkiOjY3MX1d" data-look="classic" marker-end="url(#my-svg_flowchart-v2-pointEnd)"/><path d="M519.49,523L513.636,527.167C507.781,531.333,496.072,539.667,559.789,550C623.505,560.333,762.647,572.667,832.218,585C901.789,597.333,901.789,609.667,901.789,623.333C901.789,637,901.789,652,901.789,659.5L901.789,667" id="my-svg-L_S_RS_0" class="edge-thickness-normal edge-pattern-solid edge-thickness-normal edge-pattern-solid flowchart-link" style=";" data-edge="true" data-et="edge" data-id="L_S_RS_0" data-points="W3sieCI6NTE5LjQ5MDIzNDM3NSwieSI6NTIzfSx7IngiOjQ4NC4zNjMyODEyNSwieSI6NTQ4fSx7IngiOjkwMS43ODkwNjI1LCJ5Ijo1ODV9LHsieCI6OTAxLjc4OTA2MjUsInkiOjYyMn0seyJ4Ijo5MDEuNzg5MDYyNSwieSI6NjcxfV0=" data-look="classic" marker-end="url(#my-svg_flowchart-v2-pointEnd)"/><path d="M622.548,523L622.419,527.167C622.29,531.333,622.032,539.667,721.674,550C821.316,560.333,1020.859,572.667,1120.631,585C1220.402,597.333,1220.402,609.667,1223.691,619.503C1226.979,629.34,1233.556,636.681,1236.844,640.351L1240.132,644.021" id="my-svg-L_S_M_0" class="edge-thickness-normal edge-pattern-solid edge-thickness-normal edge-pattern-solid flowchart-link" style=";" data-edge="true" data-et="edge" data-id="L_S_M_0" data-points="W3sieCI6NjIyLjU0Nzg1MTU2MjUsInkiOjUyM30seyJ4Ijo2MjEuNzczNDM3NSwieSI6NTQ4fSx7IngiOjEyMjAuNDAyMzQzNzUsInkiOjU4NX0seyJ4IjoxMjIwLjQwMjM0Mzc1LCJ5Ijo2MjJ9LHsieCI6MTI0Mi44MDE2MDM2MTg0MjEsInkiOjY0N31d" data-look="classic" marker-end="url(#my-svg_flowchart-v2-pointEnd)"/><path d="M1307.356,225L1298.368,233.167C1289.38,241.333,1271.405,257.667,1262.417,272C1253.43,286.333,1253.43,298.667,1253.43,311C1253.43,323.333,1253.43,335.667,1253.43,353.333C1253.43,371,1253.43,394,1253.43,405.5L1253.43,417" id="my-svg-L_W_RN_0" class="edge-thickness-normal edge-pattern-solid edge-thickness-normal edge-pattern-solid flowchart-link" style=";" data-edge="true" data-et="edge" data-id="L_W_RN_0" data-points="W3sieCI6MTMwNy4zNTU4Nzk5MzQyMTA2LCJ5IjoyMjV9LHsieCI6MTI1My40Mjk2ODc1LCJ5IjoyNzR9LHsieCI6MTI1My40Mjk2ODc1LCJ5IjozMTF9LHsieCI6MTI1My40Mjk2ODc1LCJ5IjozNDh9LHsieCI6MTI1My40Mjk2ODc1LCJ5Ijo0MjF9XQ==" data-look="classic" marker-end="url(#my-svg_flowchart-v2-pointEnd)"/><path d="M1235.098,475L1226.838,487.167C1218.577,499.333,1202.056,523.667,1117.995,542C1033.934,560.333,882.332,572.667,806.531,585C730.73,597.333,730.73,609.667,722.766,623.537C714.802,637.406,698.874,652.813,690.91,660.516L682.946,668.219" id="my-svg-L_RN_SS_0" class="edge-thickness-normal edge-pattern-solid edge-thickness-normal edge-pattern-solid flowchart-link" style=";" data-edge="true" data-et="edge" data-id="L_RN_SS_0" data-points="W3sieCI6MTIzNS4wOTgxNjQwNjI1LCJ5Ijo0NzV9LHsieCI6MTE4NS41MzUxNTYyNSwieSI6NTQ4fSx7IngiOjczMC43MzA0Njg3NSwieSI6NTg1fSx7IngiOjczMC43MzA0Njg3NSwieSI6NjIyfSx7IngiOjY4MC4wNzA3NzUwODIyMzY5LCJ5Ijo2NzF9XQ==" data-look="classic" marker-end="url(#my-svg_flowchart-v2-pointEnd)"/><path d="M1330.703,475L1365.524,487.167C1400.345,499.333,1469.987,523.667,1474.301,542C1478.616,560.333,1417.603,572.667,1387.096,585C1356.59,597.333,1356.59,609.667,1353.302,619.503C1350.013,629.34,1343.436,636.681,1340.148,640.351L1336.86,644.021" id="my-svg-L_RN_M_0" class="edge-thickness-normal edge-pattern-solid edge-thickness-normal edge-pattern-solid flowchart-link" style=";" data-edge="true" data-et="edge" data-id="L_RN_M_0" data-points="W3sieCI6MTMzMC43MDM0NzY1NjI1LCJ5Ijo0NzV9LHsieCI6MTUzOS42Mjg5MDYyNSwieSI6NTQ4fSx7IngiOjEzNTYuNTg5ODQzNzUsInkiOjU4NX0seyJ4IjoxMzU2LjU4OTg0Mzc1LCJ5Ijo2MjJ9LHsieCI6MTMzNC4xOTA1ODM4ODE1NzksInkiOjY0N31d" data-look="classic" marker-end="url(#my-svg_flowchart-v2-pointEnd)"/><path d="M167.003,249L160.919,253.167C154.835,257.333,142.668,265.667,136.584,276C130.5,286.333,130.5,298.667,130.5,311C130.5,323.333,130.5,335.667,130.5,358.5C130.5,381.333,130.5,414.667,130.5,448C130.5,481.333,130.5,514.667,130.5,537.5C130.5,560.333,130.5,572.667,130.5,585C130.5,597.333,130.5,609.667,130.5,628.5C130.5,647.333,130.5,672.667,130.5,698C130.5,723.333,130.5,748.667,130.5,767.5C130.5,786.333,130.5,798.667,130.5,811C130.5,823.333,130.5,835.667,181.212,858.967C231.924,882.266,333.349,916.533,384.061,933.666L434.773,950.799" id="my-svg-L_H_DOM_0" class="edge-thickness-normal edge-pattern-dotted edge-thickness-normal edge-pattern-solid flowchart-link" style=";" data-edge="true" data-et="edge" data-id="L_H_DOM_0" data-points="W3sieCI6MTY3LjAwMjg3ODI4OTQ3MzcsInkiOjI0OX0seyJ4IjoxMzAuNSwieSI6Mjc0fSx7IngiOjEzMC41LCJ5IjozMTF9LHsieCI6MTMwLjUsInkiOjM0OH0seyJ4IjoxMzAuNSwieSI6NDQ4fSx7IngiOjEzMC41LCJ5Ijo1NDh9LHsieCI6MTMwLjUsInkiOjU4NX0seyJ4IjoxMzAuNSwieSI6NjIyfSx7IngiOjEzMC41LCJ5Ijo2OTh9LHsieCI6MTMwLjUsInkiOjc3NH0seyJ4IjoxMzAuNSwieSI6ODExfSx7IngiOjEzMC41LCJ5Ijo4NDh9LHsieCI6NDM4LjU2MjUsInkiOjk1Mi4wNzkzMjY1ODAxMTEyfV0=" data-look="classic" marker-end="url(#my-svg_flowchart-v2-pointEnd)"/><path d="M457.934,486.432L413.361,496.693C368.789,506.955,279.645,527.477,235.072,543.905C190.5,560.333,190.5,572.667,190.5,585C190.5,597.333,190.5,609.667,190.5,628.5C190.5,647.333,190.5,672.667,190.5,698C190.5,723.333,190.5,748.667,190.5,767.5C190.5,786.333,190.5,798.667,190.5,811C190.5,823.333,190.5,835.667,231.223,857.775C271.946,879.884,353.392,911.767,394.115,927.709L434.838,943.651" id="my-svg-L_S_DOM_0" class="edge-thickness-normal edge-pattern-dotted edge-thickness-normal edge-pattern-solid flowchart-link" style=";" data-edge="true" data-et="edge" data-id="L_S_DOM_0" data-points="W3sieCI6NDU3LjkzMzU5Mzc1LCJ5Ijo0ODYuNDMyMDAwMjg3NzcyNH0seyJ4IjoxOTAuNSwieSI6NTQ4fSx7IngiOjE5MC41LCJ5Ijo1ODV9LHsieCI6MTkwLjUsInkiOjYyMn0seyJ4IjoxOTAuNSwieSI6Njk4fSx7IngiOjE5MC41LCJ5Ijo3NzR9LHsieCI6MTkwLjUsInkiOjgxMX0seyJ4IjoxOTAuNSwieSI6ODQ4fSx7IngiOjQzOC41NjI1LCJ5Ijo5NDUuMTA4OTQzNjI3MDQ1OH1d" data-look="classic" marker-end="url(#my-svg_flowchart-v2-pointEnd)"/><path d="M633.102,725L627.339,733.167C621.576,741.333,610.05,757.667,580.458,772C550.866,786.333,503.208,798.667,479.38,811C455.551,823.333,455.551,835.667,458.328,845.47C461.105,855.274,466.659,862.547,469.436,866.184L472.213,869.821" id="my-svg-L_SS_DOM_0" class="edge-thickness-normal edge-pattern-dotted edge-thickness-normal edge-pattern-solid flowchart-link" style=";" data-edge="true" data-et="edge" data-id="L_SS_DOM_0" data-points="W3sieCI6NjMzLjEwMjQ4NzY2NDQ3MzYsInkiOjcyNX0seyJ4Ijo1OTguNTIzNDM3NSwieSI6Nzc0fSx7IngiOjQ1NS41NTA3ODEyNSwieSI6ODExfSx7IngiOjQ1NS41NTA3ODEyNSwieSI6ODQ4fSx7IngiOjQ3NC42NDA1OTg2MDY0MTg5LCJ5Ijo4NzN9XQ==" data-look="classic" marker-end="url(#my-svg_flowchart-v2-pointEnd)"/><path d="M851.263,725L835.98,733.167C820.697,741.333,790.132,757.667,736.255,772C682.379,786.333,605.191,798.667,566.598,811C528.004,823.333,528.004,835.667,528.97,845.357C529.935,855.047,531.867,862.095,532.832,865.619L533.798,869.142" id="my-svg-L_RS_DOM_0" class="edge-thickness-normal edge-pattern-dotted edge-thickness-normal edge-pattern-solid flowchart-link" style=";" data-edge="true" data-et="edge" data-id="L_RS_DOM_0" data-points="W3sieCI6ODUxLjI2MjU5MjUxNjQ0NzQsInkiOjcyNX0seyJ4Ijo3NTkuNTY2NDA2MjUsInkiOjc3NH0seyJ4Ijo1MjguMDAzOTA2MjUsInkiOjgxMX0seyJ4Ijo1MjguMDAzOTA2MjUsInkiOjg0OH0seyJ4Ijo1MzQuODU1MDIwMDU5MTIxNywieSI6ODczfV0=" data-look="classic" marker-end="url(#my-svg_flowchart-v2-pointEnd)"/><path d="M1232.086,222.646L1195.626,231.205C1159.167,239.764,1086.247,256.882,1049.788,271.608C1013.328,286.333,1013.328,298.667,1013.328,311C1013.328,323.333,1013.328,335.667,1013.328,358.5C1013.328,381.333,1013.328,414.667,1013.328,448C1013.328,481.333,1013.328,514.667,925.255,537.5C837.182,560.333,661.036,572.667,572.964,585C484.891,597.333,484.891,609.667,484.891,628.5C484.891,647.333,484.891,672.667,484.891,698C484.891,723.333,484.891,748.667,499.781,767.5C514.671,786.333,544.451,798.667,559.34,811C574.23,823.333,574.23,835.667,574.096,845.334C573.962,855.001,573.694,862.002,573.56,865.502L573.426,869.003" id="my-svg-L_W_DOM_0" class="edge-thickness-normal edge-pattern-dotted edge-thickness-normal edge-pattern-solid flowchart-link" style=";" data-edge="true" data-et="edge" data-id="L_W_DOM_0" data-points="W3sieCI6MTIzMi4wODU5Mzc1LCJ5IjoyMjIuNjQ1NTc1NDI0MTE3Mzd9LHsieCI6MTAxMy4zMjgxMjUsInkiOjI3NH0seyJ4IjoxMDEzLjMyODEyNSwieSI6MzExfSx7IngiOjEwMTMuMzI4MTI1LCJ5IjozNDh9LHsieCI6MTAxMy4zMjgxMjUsInkiOjQ0OH0seyJ4IjoxMDEzLjMyODEyNSwieSI6NTQ4fSx7IngiOjQ4NC44OTA2MjUsInkiOjU4NX0seyJ4Ijo0ODQuODkwNjI1LCJ5Ijo2MjJ9LHsieCI6NDg0Ljg5MDYyNSwieSI6Njk4fSx7IngiOjQ4NC44OTA2MjUsInkiOjc3NH0seyJ4Ijo1NzQuMjMwNDY4NzUsInkiOjgxMX0seyJ4Ijo1NzQuMjMwNDY4NzUsInkiOjg0OH0seyJ4Ijo1NzMuMjczMDQxNTk2MjgzNywieSI6ODczfV0=" data-look="classic" marker-end="url(#my-svg_flowchart-v2-pointEnd)"/><path d="M1273.044,475L1281.882,487.167C1290.721,499.333,1308.397,523.667,1274.621,542C1240.844,560.333,1155.613,572.667,1112.998,585C1070.383,597.333,1070.383,609.667,1070.383,628.5C1070.383,647.333,1070.383,672.667,1070.383,698C1070.383,723.333,1070.383,748.667,1023.258,767.5C976.134,786.333,881.885,798.667,834.761,811C787.637,823.333,787.637,835.667,773.343,851.489C759.05,867.312,730.464,886.624,716.17,896.281L701.877,905.937" id="my-svg-L_RN_DOM_0" class="edge-thickness-normal edge-pattern-dotted edge-thickness-normal edge-pattern-solid flowchart-link" style=";" data-edge="true" data-et="edge" data-id="L_RN_DOM_0" data-points="W3sieCI6MTI3My4wNDM3MTA5Mzc1LCJ5Ijo0NzV9LHsieCI6MTMyNi4wNzQyMTg3NSwieSI6NTQ4fSx7IngiOjEwNzAuMzgyODEyNSwieSI6NTg1fSx7IngiOjEwNzAuMzgyODEyNSwieSI6NjIyfSx7IngiOjEwNzAuMzgyODEyNSwieSI6Njk4fSx7IngiOjEwNzAuMzgyODEyNSwieSI6Nzc0fSx7IngiOjc4Ny42MzY3MTg3NSwieSI6ODExfSx7IngiOjc4Ny42MzY3MTg3NSwieSI6ODQ4fSx7IngiOjY5OC41NjI1LCJ5Ijo5MDguMTc1ODgyMTc0NjM0fV0=" data-look="classic" marker-end="url(#my-svg_flowchart-v2-pointEnd)"/><path d="M711.13,725L728.968,733.167C746.805,741.333,782.481,757.667,850.587,772C918.694,786.333,1019.232,798.667,1069.501,811C1119.77,823.333,1119.77,835.667,1240.156,864.754C1360.542,893.842,1601.314,939.684,1721.7,962.606L1842.086,985.527" id="my-svg-L_SS_PG_0" class="edge-thickness-normal edge-pattern-solid edge-thickness-normal edge-pattern-solid flowchart-link" style=";" data-edge="true" data-et="edge" data-id="L_SS_PG_0" data-points="W3sieCI6NzExLjEyOTkzNDIxMDUyNjQsInkiOjcyNX0seyJ4Ijo4MTguMTU2MjUsInkiOjc3NH0seyJ4IjoxMTE5Ljc2OTUzMTI1LCJ5Ijo4MTF9LHsieCI6MTExOS43Njk1MzEyNSwieSI6ODQ4fSx7IngiOjE4NDYuMDE1NjI1LCJ5Ijo5ODYuMjc0ODkxMzI4OTI3OX1d" data-look="classic" marker-end="url(#my-svg_flowchart-v2-pointEnd)"/><path d="M919.973,725L925.473,733.167C930.973,741.333,941.973,757.667,978.605,772C1015.238,786.333,1077.504,798.667,1108.637,811C1139.77,823.333,1139.77,835.667,1256.823,864.708C1373.876,893.75,1607.983,939.501,1725.036,962.376L1842.09,985.251" id="my-svg-L_RS_PG_0" class="edge-thickness-normal edge-pattern-solid edge-thickness-normal edge-pattern-solid flowchart-link" style=";" data-edge="true" data-et="edge" data-id="L_RS_PG_0" data-points="W3sieCI6OTE5Ljk3MjcwNzY0ODAyNjQsInkiOjcyNX0seyJ4Ijo5NTIuOTcyNjU2MjUsInkiOjc3NH0seyJ4IjoxMTM5Ljc2OTUzMTI1LCJ5Ijo4MTF9LHsieCI6MTEzOS43Njk1MzEyNSwieSI6ODQ4fSx7IngiOjE4NDYuMDE1NjI1LCJ5Ijo5ODYuMDE4MDYzMTg1MDQxOX1d" data-look="classic" marker-end="url(#my-svg_flowchart-v2-pointEnd)"/><path d="M1288.496,749L1288.496,753.167C1288.496,757.333,1288.496,765.667,1288.496,776C1288.496,786.333,1288.496,798.667,1288.496,811C1288.496,823.333,1288.496,835.667,1406.121,864.386C1523.745,893.105,1758.994,938.211,1876.619,960.763L1994.243,983.316" id="my-svg-L_M_EMAIL_0" class="edge-thickness-normal edge-pattern-solid edge-thickness-normal edge-pattern-solid flowchart-link" style=";" data-edge="true" data-et="edge" data-id="L_M_EMAIL_0" data-points="W3sieCI6MTI4OC40OTYwOTM3NSwieSI6NzQ5fSx7IngiOjEyODguNDk2MDkzNzUsInkiOjc3NH0seyJ4IjoxMjg4LjQ5NjA5Mzc1LCJ5Ijo4MTF9LHsieCI6MTI4OC40OTYwOTM3NSwieSI6ODQ4fSx7IngiOjE5OTguMTcxODc1LCJ5Ijo5ODQuMDY5MDQ2MTM3MDI5NX1d" data-look="classic" marker-end="url(#my-svg_flowchart-v2-pointEnd)"/><path d="M753.928,525.05L760.334,528.875C766.741,532.7,779.554,540.35,905.406,550.342C1031.258,560.333,1270.148,572.667,1389.594,585C1509.039,597.333,1509.039,609.667,1564.547,626.21C1620.054,642.753,1731.069,663.506,1786.576,673.882L1842.084,684.258" id="my-svg-L_S_GH_0" class="edge-thickness-normal edge-pattern-solid edge-thickness-normal edge-pattern-solid flowchart-link" style=";" data-edge="true" data-et="edge" data-id="L_S_GH_0" data-points="W3sieCI6NzUwLjQ5MzE2NDA2MjUsInkiOjUyM30seyJ4Ijo3OTIuMzY3MTg3NSwieSI6NTQ4fSx7IngiOjE1MDkuMDM5MDYyNSwieSI6NTg1fSx7IngiOjE1MDkuMDM5MDYyNSwieSI6NjIyfSx7IngiOjE4NDYuMDE1NjI1LCJ5Ijo2ODQuOTkzMjkzNDkxNDE5OX1d" data-look="classic" marker-start="url(#my-svg_flowchart-v2-pointStart)" marker-end="url(#my-svg_flowchart-v2-pointEnd)"/><path d="M1445.979,219.423L1492.221,228.519C1538.463,237.616,1630.946,255.808,1677.188,271.071C1723.43,286.333,1723.43,298.667,1723.43,311C1723.43,323.333,1723.43,335.667,1723.43,358.5C1723.43,381.333,1723.43,414.667,1723.43,448C1723.43,481.333,1723.43,514.667,1723.43,537.5C1723.43,560.333,1723.43,572.667,1723.43,585C1723.43,597.333,1723.43,609.667,1743.459,623.755C1763.488,637.843,1803.547,653.686,1823.576,661.607L1843.605,669.529" id="my-svg-L_W_GH_0" class="edge-thickness-normal edge-pattern-solid edge-thickness-normal edge-pattern-solid flowchart-link" style=";" data-edge="true" data-et="edge" data-id="L_W_GH_0" data-points="W3sieCI6MTQ0Mi4wNTQ2ODc1LCJ5IjoyMTguNjUxMjcxODg5MDI4MTh9LHsieCI6MTcyMy40Mjk2ODc1LCJ5IjoyNzR9LHsieCI6MTcyMy40Mjk2ODc1LCJ5IjozMTF9LHsieCI6MTcyMy40Mjk2ODc1LCJ5IjozNDh9LHsieCI6MTcyMy40Mjk2ODc1LCJ5Ijo0NDh9LHsieCI6MTcyMy40Mjk2ODc1LCJ5Ijo1NDh9LHsieCI6MTcyMy40Mjk2ODc1LCJ5Ijo1ODV9LHsieCI6MTcyMy40Mjk2ODc1LCJ5Ijo2MjJ9LHsieCI6MTg0Ny4zMjQ5MzgzMjIzNjgzLCJ5Ijo2NzF9XQ==" data-look="classic" marker-start="url(#my-svg_flowchart-v2-pointStart)" marker-end="url(#my-svg_flowchart-v2-pointEnd)"/></g><g class="edgeLabels"><g class="edgeLabel"><g class="label" data-id="L_HTTP_H_0" transform="translate(0, 0)"><foreignObject width="0" height="0"><div xmlns="http://www.w3.org/1999/xhtml" class="labelBkg" style="display: table-cell; white-space: nowrap; line-height: 1.5; max-width: 200px; text-align: center;"><span class="edgeLabel"></span></div></foreignObject></g></g><g class="edgeLabel"><g class="label" data-id="L_H_S_0" transform="translate(0, 0)"><foreignObject width="0" height="0"><div xmlns="http://www.w3.org/1999/xhtml" class="labelBkg" style="display: table-cell; white-space: nowrap; line-height: 1.5; max-width: 200px; text-align: center;"><span class="edgeLabel"></span></div></foreignObject></g></g><g class="edgeLabel"><g class="label" data-id="L_S_SS_0" transform="translate(0, 0)"><foreignObject width="0" height="0"><div xmlns="http://www.w3.org/1999/xhtml" class="labelBkg" style="display: table-cell; white-space: nowrap; line-height: 1.5; max-width: 200px; text-align: center;"><span class="edgeLabel"></span></div></foreignObject></g></g><g class="edgeLabel"><g class="label" data-id="L_S_RS_0" transform="translate(0, 0)"><foreignObject width="0" height="0"><div xmlns="http://www.w3.org/1999/xhtml" class="labelBkg" style="display: table-cell; white-space: nowrap; line-height: 1.5; max-width: 200px; text-align: center;"><span class="edgeLabel"></span></div></foreignObject></g></g><g class="edgeLabel" transform="translate(1220.40234375, 585)"><g class="label" data-id="L_S_M_0" transform="translate(-58.09375, -12)"><foreignObject width="116.1875" height="24"><div xmlns="http://www.w3.org/1999/xhtml" class="labelBkg" style="display: table-cell; white-space: nowrap; line-height: 1.5; max-width: 200px; text-align: center;"><span class="edgeLabel"><p>direct SMTP call</p></span></div></foreignObject></g></g><g class="edgeLabel" transform="translate(1253.4296875, 311)"><g class="label" data-id="L_W_RN_0" transform="translate(-50.265625, -12)"><foreignObject width="100.53125" height="24"><div xmlns="http://www.w3.org/1999/xhtml" class="labelBkg" style="display: table-cell; white-space: nowrap; line-height: 1.5; max-width: 200px; text-align: center;"><span class="edgeLabel"><p>new tag found</p></span></div></foreignObject></g></g><g class="edgeLabel" transform="translate(730.73046875, 585)"><g class="label" data-id="L_RN_SS_0" transform="translate(-72.484375, -12)"><foreignObject width="144.96875" height="24"><div xmlns="http://www.w3.org/1999/xhtml" class="labelBkg" style="display: table-cell; white-space: nowrap; line-height: 1.5; max-width: 200px; text-align: center;"><span class="edgeLabel"><p>read confirmed subs</p></span></div></foreignObject></g></g><g class="edgeLabel" transform="translate(1356.58984375, 585)"><g class="label" data-id="L_RN_M_0" transform="translate(-58.09375, -12)"><foreignObject width="116.1875" height="24"><div xmlns="http://www.w3.org/1999/xhtml" class="labelBkg" style="display: table-cell; white-space: nowrap; line-height: 1.5; max-width: 200px; text-align: center;"><span class="edgeLabel"><p>direct SMTP call</p></span></div></foreignObject></g></g><g class="edgeLabel" transform="translate(130.5, 585)"><g class="label" data-id="L_H_DOM_0" transform="translate(-26.2265625, -12)"><foreignObject width="52.453125" height="24"><div xmlns="http://www.w3.org/1999/xhtml" class="labelBkg" style="display: table-cell; white-space: nowrap; line-height: 1.5; max-width: 200px; text-align: center;"><span class="edgeLabel"><p>imports</p></span></div></foreignObject></g></g><g class="edgeLabel" transform="translate(190.5, 698)"><g class="label" data-id="L_S_DOM_0" transform="translate(-26.2265625, -12)"><foreignObject width="52.453125" height="24"><div xmlns="http://www.w3.org/1999/xhtml" class="labelBkg" style="display: table-cell; white-space: nowrap; line-height: 1.5; max-width: 200px; text-align: center;"><span class="edgeLabel"><p>imports</p></span></div></foreignObject></g></g><g class="edgeLabel" transform="translate(455.55078125, 811)"><g class="label" data-id="L_SS_DOM_0" transform="translate(-26.2265625, -12)"><foreignObject width="52.453125" height="24"><div xmlns="http://www.w3.org/1999/xhtml" class="labelBkg" style="display: table-cell; white-space: nowrap; line-height: 1.5; max-width: 200px; text-align: center;"><span class="edgeLabel"><p>imports</p></span></div></foreignObject></g></g><g class="edgeLabel" transform="translate(528.00390625, 811)"><g class="label" data-id="L_RS_DOM_0" transform="translate(-26.2265625, -12)"><foreignObject width="52.453125" height="24"><div xmlns="http://www.w3.org/1999/xhtml" class="labelBkg" style="display: table-cell; white-space: nowrap; line-height: 1.5; max-width: 200px; text-align: center;"><span class="edgeLabel"><p>imports</p></span></div></foreignObject></g></g><g class="edgeLabel" transform="translate(484.890625, 585)"><g class="label" data-id="L_W_DOM_0" transform="translate(-26.2265625, -12)"><foreignObject width="52.453125" height="24"><div xmlns="http://www.w3.org/1999/xhtml" class="labelBkg" style="display: table-cell; white-space: nowrap; line-height: 1.5; max-width: 200px; text-align: center;"><span class="edgeLabel"><p>imports</p></span></div></foreignObject></g></g><g class="edgeLabel" transform="translate(1070.3828125, 698)"><g class="label" data-id="L_RN_DOM_0" transform="translate(-26.2265625, -12)"><foreignObject width="52.453125" height="24"><div xmlns="http://www.w3.org/1999/xhtml" class="labelBkg" style="display: table-cell; white-space: nowrap; line-height: 1.5; max-width: 200px; text-align: center;"><span class="edgeLabel"><p>imports</p></span></div></foreignObject></g></g><g class="edgeLabel"><g class="label" data-id="L_SS_PG_0" transform="translate(0, 0)"><foreignObject width="0" height="0"><div xmlns="http://www.w3.org/1999/xhtml" class="labelBkg" style="display: table-cell; white-space: nowrap; line-height: 1.5; max-width: 200px; text-align: center;"><span class="edgeLabel"></span></div></foreignObject></g></g><g class="edgeLabel"><g class="label" data-id="L_RS_PG_0" transform="translate(0, 0)"><foreignObject width="0" height="0"><div xmlns="http://www.w3.org/1999/xhtml" class="labelBkg" style="display: table-cell; white-space: nowrap; line-height: 1.5; max-width: 200px; text-align: center;"><span class="edgeLabel"></span></div></foreignObject></g></g><g class="edgeLabel"><g class="label" data-id="L_M_EMAIL_0" transform="translate(0, 0)"><foreignObject width="0" height="0"><div xmlns="http://www.w3.org/1999/xhtml" class="labelBkg" style="display: table-cell; white-space: nowrap; line-height: 1.5; max-width: 200px; text-align: center;"><span class="edgeLabel"></span></div></foreignObject></g></g><g class="edgeLabel" transform="translate(1509.0390625, 585)"><g class="label" data-id="L_S_GH_0" transform="translate(-41.8046875, -12)"><foreignObject width="83.609375" height="24"><div xmlns="http://www.w3.org/1999/xhtml" class="labelBkg" style="display: table-cell; white-space: nowrap; line-height: 1.5; max-width: 200px; text-align: center;"><span class="edgeLabel"><p>CheckRepo</p></span></div></foreignObject></g></g><g class="edgeLabel" transform="translate(1723.4296875, 448)"><g class="label" data-id="L_W_GH_0" transform="translate(-47.5859375, -12)"><foreignObject width="95.171875" height="24"><div xmlns="http://www.w3.org/1999/xhtml" class="labelBkg" style="display: table-cell; white-space: nowrap; line-height: 1.5; max-width: 200px; text-align: center;"><span class="edgeLabel"><p>GetLatestTag</p></span></div></foreignObject></g></g></g><g class="nodes"><g class="node default" id="my-svg-flowchart-HTTP-0" data-look="classic" transform="translate(241.46875, 27.5)"><g class="basic label-container outer-path"><path d="M-45.640625 -19.5 C-19.410126670653987 -19.5, 6.820371658692025 -19.5, 45.640625 -19.5 C45.640625 -19.5, 45.640625 -19.5, 45.640625 -19.5 C45.913955468250336 -19.491234823888693, 46.18728593650067 -19.482469647777386, 46.8899942896239 -19.45993515863156 C47.35945870387605 -19.414646491202216, 47.8289231181282 -19.369357823772877, 48.134229652847864 -19.3399052695533 C48.40543850799405 -19.29605832510935, 48.67664736314023 -19.252211380665397, 49.36821825967676 -19.140403561325776 C49.837078006375464 -19.03338938373758, 50.305937753074176 -18.926375206149377, 50.58688938623539 -18.862249829261074 C51.00635953945144 -18.73775328963032, 51.425829692667484 -18.61325674999956, 51.785235251460605 -18.50658706670804 C52.201272980598176 -18.353481336574802, 52.61731070973575 -18.200375606441565, 52.9583315951478 -18.074876768247425 C53.27947690341641 -17.932715266714006, 53.60062221168502 -17.790553765180587, 54.10135791279238 -17.568892924097174 C54.48738412507646 -17.36750329641016, 54.87341033736053 -17.16611366872315, 55.20961726407678 -16.990714730406097 C55.601858820606985 -16.752935593770243, 55.99410037713719 -16.515156457134392, 56.2785555736057 -16.342718045390892 C56.52264612796925 -16.172451041176675, 56.766736682332805 -16.002184036962458, 57.30378034457871 -15.627565626425154 C57.55618895520878 -15.426276476322892, 57.80859756583885 -15.22498732622063, 58.281078708501866 -14.848196188198123 C58.61665273748469 -14.543436733878185, 58.952226766467525 -14.238677279558244, 59.20643473676799 -14.007812326905688 C59.38053767906524 -13.828036744866377, 59.55464062136249 -13.648261162827069, 60.07604594296865 -13.10986736009568 C60.25434548397132 -12.900426573702648, 60.43264502497399 -12.690985787309616, 60.88633890812658 -12.158051136245305 C61.093811988412135 -11.880056109849114, 61.30128506869768 -11.602061083452925, 61.633983964640635 -11.156274872382312 C61.816402526734144 -10.87603097476404, 61.998821088827654 -10.595787077145769, 62.31590887860425 -10.108655082055241 C62.524236314988194 -9.738748623315095, 62.73256375137215 -9.36884216457495, 62.929311474273504 -9.019496659696287 C63.09285490688139 -8.679895222617118, 63.25639833948928 -8.340293785537948, 63.47167114880834 -7.893275190886684 C63.60034232033231 -7.5754549095346135, 63.72901349185628 -7.257634628182542, 63.940759229970325 -6.734618561215508 C64.08877728304391 -6.288811768831942, 64.2367953361175 -5.843004976448376, 64.33464813421489 -5.548287939305138 C64.45256263483847 -5.098628843959548, 64.57047713546206 -4.648969748613959, 64.65171928754556 -4.339158212148133 C64.73916388722017 -3.8901486742416798, 64.82660848689478 -3.4411391363352264, 64.89066977658177 -3.1121979531509023 C64.93105561821277 -2.7989733405473545, 64.97144145984377 -2.4857487279438066, 65.05051770250937 -1.872449005199798 C65.07202476221198 -1.537459190145548, 65.09353182191458 -1.2024693750912983, 65.13060621591342 -0.6250057626472757 C65.13060621591342 -0.12630805616555585, 65.13060621591342 0.372389650316164, 65.13060621591342 0.625005762647271 C65.11223425213015 0.9111639281538461, 65.09386228834688 1.197322093660421, 65.05051770250937 1.8724490051997846 C65.01807579918811 2.1240620009809894, 64.98563389586687 2.375674996762194, 64.89066977658177 3.1121979531508885 C64.80086566248639 3.5733230989244573, 64.711061548391 4.0344482446980265, 64.65171928754556 4.339158212148129 C64.55354072635313 4.713555616832442, 64.45536216516071 5.087953021516756, 64.33464813421489 5.548287939305125 C64.20893904234858 5.926903694982671, 64.08322995048225 6.305519450660215, 63.940759229970325 6.734618561215495 C63.8109900330937 7.055150986417502, 63.68122083621707 7.375683411619509, 63.47167114880834 7.893275190886679 C63.33986471253169 8.166974076021093, 63.20805827625504 8.440672961155508, 62.929311474273504 9.019496659696284 C62.741384149010266 9.353180655406353, 62.55345682374703 9.686864651116423, 62.31590887860425 10.108655082055236 C62.06408324487676 10.49552688011165, 61.812257611149285 10.88239867816806, 61.63398396464064 11.156274872382301 C61.349634788162504 11.537276864120123, 61.06528561168436 11.918278855857945, 60.88633890812658 12.158051136245302 C60.61976840368381 12.471180019055192, 60.353197899241025 12.784308901865082, 60.07604594296866 13.10986736009567 C59.79248860202329 13.402663595112418, 59.50893126107791 13.695459830129167, 59.20643473676799 14.007812326905684 C58.88199260915786 14.302462082932909, 58.557550481547736 14.597111838960133, 58.28107870850189 14.848196188198111 C57.923444635313075 15.13339984452381, 57.56581056212426 15.418603500849509, 57.30378034457871 15.627565626425152 C56.94099075603494 15.880631938485116, 56.57820116749117 16.13369825054508, 56.27855557360571 16.34271804539089 C55.97424075804319 16.527195474937248, 55.66992594248067 16.71167290448361, 55.20961726407678 16.990714730406093 C54.89364949822376 17.155554911464602, 54.57768173237074 17.32039509252311, 54.10135791279239 17.56889292409717 C53.73340743492812 17.73177368578456, 53.365456957063856 17.894654447471954, 52.958331595147804 18.07487676824742 C52.58542607278206 18.212109447578875, 52.21252055041632 18.349342126910326, 51.78523525146062 18.506587066708033 C51.502719940629646 18.59043612800954, 51.220204629798666 18.674285189311046, 50.58688938623541 18.86224982926107 C50.19127713563295 18.952545743849882, 49.79566488503049 19.042841658438697, 49.368218259676766 19.140403561325773 C48.99557194894801 19.200650126929098, 48.62292563821925 19.260896692532423, 48.13422965284788 19.3399052695533 C47.695070101620985 19.382270463293523, 47.2559105503941 19.424635657033747, 46.8899942896239 19.45993515863156 C46.57721553133844 19.469965364622855, 46.264436773052985 19.479995570614147, 45.64062500000001 19.5 C45.64062500000001 19.5, 45.640625 19.5, 45.640625 19.5 C22.921622506548232 19.5, 0.20262001309646394 19.5, -45.64062499999999 19.5 C-46.10418468753447 19.485134543084964, -46.56774437506894 19.470269086169928, -46.88999428962389 19.45993515863156 C-47.27644485592821 19.422654737274986, -47.66289542223252 19.385374315918416, -48.13422965284787 19.3399052695533 C-48.386453940139205 19.299127602812597, -48.63867822743054 19.258349936071895, -49.36821825967676 19.140403561325773 C-49.85192941897883 19.029999645725383, -50.335640578280895 18.91959573012499, -50.586889386235384 18.862249829261074 C-50.872931575494825 18.777354008954962, -51.15897376475427 18.692458188648853, -51.78523525146059 18.506587066708043 C-52.10751963572439 18.387983434134778, -52.42980401998818 18.26937980156151, -52.9583315951478 18.074876768247425 C-53.284909882304554 17.930310248123813, -53.61148816946132 17.785743728000202, -54.10135791279238 17.568892924097174 C-54.53277201554934 17.34382446302279, -54.9641861183063 17.118756001948405, -55.20961726407678 16.990714730406097 C-55.53762832370399 16.791872498453134, -55.8656393833312 16.593030266500172, -56.278555573605686 16.3427180453909 C-56.586909916477595 16.12762340424782, -56.89526425934951 15.912528763104739, -57.30378034457871 15.627565626425156 C-57.50622784539708 15.466119131876761, -57.708675346215436 15.304672637328366, -58.281078708501866 14.848196188198125 C-58.55291175180687 14.601324610576723, -58.82474479511187 14.354453032955321, -59.206434736767974 14.007812326905697 C-59.52731039780623 13.676481862501987, -59.84818605884449 13.345151398098277, -60.076045942968655 13.109867360095677 C-60.28078695359439 12.869366918921155, -60.48552796422012 12.628866477746634, -60.886338908126575 12.158051136245307 C-61.09226544040198 11.882128343289292, -61.29819197267739 11.606205550333279, -61.633983964640635 11.156274872382316 C-61.794135821548046 10.910238613377429, -61.954287678455465 10.664202354372543, -62.31590887860425 10.108655082055249 C-62.45088641457257 9.86898879898587, -62.5858639505409 9.62932251591649, -62.929311474273504 9.019496659696289 C-63.13413562538674 8.59417492737488, -63.33895977649998 8.168853195053472, -63.47167114880834 7.893275190886686 C-63.59437917127622 7.590184002992797, -63.717087193744106 7.287092815098909, -63.940759229970325 6.73461856121551 C-64.04349309056987 6.42520054150751, -64.14622695116941 6.1157825217995105, -64.33464813421489 5.5482879393051325 C-64.44526209384883 5.126468970827553, -64.55587605348276 4.7046500023499735, -64.65171928754556 4.339158212148136 C-64.70504543708815 4.0653397047326525, -64.75837158663073 3.79152119731717, -64.89066977658177 3.112197953150904 C-64.9528177374545 2.6301906411250777, -65.01496569832722 2.1481833290992514, -65.05051770250937 1.872449005199809 C-65.08173255927619 1.3862524148777156, -65.11294741604301 0.9000558245556223, -65.13060621591342 0.6250057626472781 C-65.13060621591342 0.18229071365311683, -65.13060621591342 -0.2604243353410445, -65.13060621591342 -0.6250057626472687 C-65.10569613070241 -1.0130004468676344, -65.0807860454914 -1.400995131088, -65.05051770250937 -1.8724490051997822 C-65.00149394906637 -2.2526675560685994, -64.95247019562336 -2.6328861069374163, -64.89066977658177 -3.112197953150895 C-64.82492693098874 -3.4497735705157866, -64.7591840853957 -3.787349187880678, -64.65171928754556 -4.339158212148126 C-64.57024650111794 -4.649849257325659, -64.48877371469031 -4.960540302503192, -64.33464813421489 -5.548287939305123 C-64.21830974951314 -5.898680618022419, -64.10197136481139 -6.249073296739715, -63.94075922997033 -6.734618561215485 C-63.835176815834636 -6.995409165427763, -63.72959440169894 -7.256199769640041, -63.47167114880834 -7.893275190886676 C-63.31949014756238 -8.209282296125718, -63.16730914631642 -8.525289401364759, -62.929311474273504 -9.019496659696282 C-62.68958218408454 -9.445160289649724, -62.44985289389559 -9.870823919603168, -62.31590887860425 -10.108655082055243 C-62.05168716113989 -10.514570593546066, -61.78746544367552 -10.92048610503689, -61.63398396464064 -11.156274872382308 C-61.39929341655291 -11.470738826071097, -61.16460286846518 -11.785202779759883, -60.88633890812659 -12.158051136245302 C-60.70767440471118 -12.36792062825529, -60.52900990129576 -12.577790120265279, -60.07604594296866 -13.10986736009567 C-59.75168588479688 -13.444795750614073, -59.427325826625086 -13.779724141132476, -59.206434736767996 -14.007812326905677 C-59.007721322492834 -14.18827859208155, -58.809007908217666 -14.368744857257424, -58.28107870850189 -14.848196188198107 C-58.046158807005504 -15.03553855816035, -57.81123890550912 -15.222880928122592, -57.30378034457872 -15.627565626425149 C-56.92921653795569 -15.88884512331952, -56.55465273133266 -16.15012462021389, -56.278555573605715 -16.342718045390885 C-56.059440055195964 -16.47554716031659, -55.840324536786206 -16.6083762752423, -55.20961726407679 -16.99071473040609 C-54.81884568749632 -17.19458001160698, -54.42807411091585 -17.39844529280787, -54.10135791279239 -17.56889292409717 C-53.714287552703276 -17.740237490474346, -53.32721719261417 -17.91158205685152, -52.958331595147804 -18.07487676824742 C-52.5299883562758 -18.232511039713813, -52.1016451174038 -18.390145311180202, -51.78523525146062 -18.506587066708033 C-51.41775307750858 -18.615653846983705, -51.05027090355653 -18.724720627259376, -50.58688938623541 -18.862249829261067 C-50.27478565203257 -18.933485469925664, -49.96268191782973 -19.00472111059026, -49.368218259676766 -19.140403561325773 C-48.90084533587083 -19.21596479111556, -48.433472412064894 -19.291526020905348, -48.13422965284788 -19.3399052695533 C-47.76335178741691 -19.375683411185534, -47.39247392198593 -19.411461552817766, -46.8899942896239 -19.45993515863156 C-46.63658716959474 -19.46806143174386, -46.38318004956558 -19.476187704856155, -45.64062500000001 -19.5 C-45.64062500000001 -19.5, -45.640625 -19.5, -45.640625 -19.5" stroke="none" stroke-width="0" fill="#ECECFF" style=""/><path d="M-45.640625 -19.5 C-16.008168157013767 -19.5, 13.624288685972466 -19.5, 45.640625 -19.5 M-45.640625 -19.5 C-24.59938954847947 -19.5, -3.558154096958937 -19.5, 45.640625 -19.5 M45.640625 -19.5 C45.640625 -19.5, 45.640625 -19.5, 45.640625 -19.5 M45.640625 -19.5 C45.640625 -19.5, 45.640625 -19.5, 45.640625 -19.5 M45.640625 -19.5 C46.00986925237316 -19.48815905551673, 46.37911350474631 -19.47631811103346, 46.8899942896239 -19.45993515863156 M45.640625 -19.5 C45.950772809007844 -19.490054163431207, 46.26092061801569 -19.480108326862414, 46.8899942896239 -19.45993515863156 M46.8899942896239 -19.45993515863156 C47.18563422803439 -19.431415129332144, 47.48127416644488 -19.40289510003273, 48.134229652847864 -19.3399052695533 M46.8899942896239 -19.45993515863156 C47.314334377310594 -19.418999580716044, 47.73867446499729 -19.37806400280053, 48.134229652847864 -19.3399052695533 M48.134229652847864 -19.3399052695533 C48.55954910711087 -19.271142918589685, 48.984868561373865 -19.202380567626076, 49.36821825967676 -19.140403561325776 M48.134229652847864 -19.3399052695533 C48.43273855047549 -19.29164466595594, 48.73124744810311 -19.243384062358583, 49.36821825967676 -19.140403561325776 M49.36821825967676 -19.140403561325776 C49.68092289638976 -19.06903076858449, 49.99362753310275 -18.997657975843207, 50.58688938623539 -18.862249829261074 M49.36821825967676 -19.140403561325776 C49.81118423293706 -19.03929946855223, 50.25415020619736 -18.938195375778687, 50.58688938623539 -18.862249829261074 M50.58688938623539 -18.862249829261074 C50.847807758744196 -18.784810625888948, 51.10872613125299 -18.70737142251682, 51.785235251460605 -18.50658706670804 M50.58688938623539 -18.862249829261074 C50.980692735823276 -18.745371062219355, 51.37449608541116 -18.628492295177637, 51.785235251460605 -18.50658706670804 M51.785235251460605 -18.50658706670804 C52.22400859694861 -18.34511441959211, 52.66278194243661 -18.183641772476182, 52.9583315951478 -18.074876768247425 M51.785235251460605 -18.50658706670804 C52.2466747866545 -18.33677305225638, 52.708114321848406 -18.16695903780472, 52.9583315951478 -18.074876768247425 M52.9583315951478 -18.074876768247425 C53.407296623698095 -17.87613326818259, 53.856261652248385 -17.677389768117752, 54.10135791279238 -17.568892924097174 M52.9583315951478 -18.074876768247425 C53.26690879619529 -17.93827879496114, 53.57548599724278 -17.801680821674857, 54.10135791279238 -17.568892924097174 M54.10135791279238 -17.568892924097174 C54.36537579503765 -17.43115496404134, 54.62939367728292 -17.29341700398551, 55.20961726407678 -16.990714730406097 M54.10135791279238 -17.568892924097174 C54.46668690952827 -17.37830102050445, 54.83201590626417 -17.187709116911726, 55.20961726407678 -16.990714730406097 M55.20961726407678 -16.990714730406097 C55.50374626872053 -16.81241199929716, 55.79787527336429 -16.63410926818823, 56.2785555736057 -16.342718045390892 M55.20961726407678 -16.990714730406097 C55.457801411763754 -16.840264041586313, 55.705985559450724 -16.68981335276653, 56.2785555736057 -16.342718045390892 M56.2785555736057 -16.342718045390892 C56.63503637390779 -16.094052470905286, 56.99151717420987 -15.84538689641968, 57.30378034457871 -15.627565626425154 M56.2785555736057 -16.342718045390892 C56.600395136703625 -16.118216698383918, 56.92223469980155 -15.893715351376944, 57.30378034457871 -15.627565626425154 M57.30378034457871 -15.627565626425154 C57.532066136934304 -15.445513781961635, 57.7603519292899 -15.263461937498116, 58.281078708501866 -14.848196188198123 M57.30378034457871 -15.627565626425154 C57.66941340926646 -15.335982987241154, 58.03504647395421 -15.044400348057154, 58.281078708501866 -14.848196188198123 M58.281078708501866 -14.848196188198123 C58.55477552231792 -14.59963198351125, 58.82847233613398 -14.351067778824378, 59.20643473676799 -14.007812326905688 M58.281078708501866 -14.848196188198123 C58.61104788436532 -14.548526913184912, 58.94101706022878 -14.248857638171701, 59.20643473676799 -14.007812326905688 M59.20643473676799 -14.007812326905688 C59.547358242110924 -13.655780817298766, 59.88828174745387 -13.303749307691842, 60.07604594296865 -13.10986736009568 M59.20643473676799 -14.007812326905688 C59.48730214002094 -13.717793673404362, 59.76816954327388 -13.427775019903038, 60.07604594296865 -13.10986736009568 M60.07604594296865 -13.10986736009568 C60.29378729235107 -12.854095981277323, 60.511528641733484 -12.598324602458966, 60.88633890812658 -12.158051136245305 M60.07604594296865 -13.10986736009568 C60.255175903155866 -12.89945111607629, 60.434305863343084 -12.689034872056899, 60.88633890812658 -12.158051136245305 M60.88633890812658 -12.158051136245305 C61.17515756701428 -11.771060445256898, 61.46397622590198 -11.384069754268493, 61.633983964640635 -11.156274872382312 M60.88633890812658 -12.158051136245305 C61.04114815279655 -11.950620851799869, 61.19595739746652 -11.743190567354432, 61.633983964640635 -11.156274872382312 M61.633983964640635 -11.156274872382312 C61.86195911704794 -10.806043818384675, 62.08993426945525 -10.455812764387039, 62.31590887860425 -10.108655082055241 M61.633983964640635 -11.156274872382312 C61.80394061081841 -10.895175824103584, 61.97389725699618 -10.634076775824857, 62.31590887860425 -10.108655082055241 M62.31590887860425 -10.108655082055241 C62.525020275541515 -9.737356621968067, 62.73413167247878 -9.366058161880892, 62.929311474273504 -9.019496659696287 M62.31590887860425 -10.108655082055241 C62.50651047834959 -9.770222641202539, 62.69711207809493 -9.431790200349836, 62.929311474273504 -9.019496659696287 M62.929311474273504 -9.019496659696287 C63.12375773947126 -8.615724829529576, 63.318204004669006 -8.211952999362863, 63.47167114880834 -7.893275190886684 M62.929311474273504 -9.019496659696287 C63.108887012041016 -8.646604213221059, 63.288462549808536 -8.27371176674583, 63.47167114880834 -7.893275190886684 M63.47167114880834 -7.893275190886684 C63.610326491289 -7.550793814240778, 63.74898183376966 -7.208312437594872, 63.940759229970325 -6.734618561215508 M63.47167114880834 -7.893275190886684 C63.643798007057136 -7.468118523165741, 63.81592486530594 -7.042961855444798, 63.940759229970325 -6.734618561215508 M63.940759229970325 -6.734618561215508 C64.05147119480573 -6.401171762687357, 64.16218315964115 -6.067724964159208, 64.33464813421489 -5.548287939305138 M63.940759229970325 -6.734618561215508 C64.06131431467263 -6.371525853936466, 64.18186939937492 -6.008433146657422, 64.33464813421489 -5.548287939305138 M64.33464813421489 -5.548287939305138 C64.43725302804668 -5.15701100988222, 64.53985792187848 -4.7657340804593025, 64.65171928754556 -4.339158212148133 M64.33464813421489 -5.548287939305138 C64.40662030729533 -5.273826850412301, 64.47859248037575 -4.999365761519464, 64.65171928754556 -4.339158212148133 M64.65171928754556 -4.339158212148133 C64.70789574622141 -4.050703969746382, 64.76407220489726 -3.7622497273446323, 64.89066977658177 -3.1121979531509023 M64.65171928754556 -4.339158212148133 C64.71493106650028 -4.014579087029807, 64.77814284545502 -3.68999996191148, 64.89066977658177 -3.1121979531509023 M64.89066977658177 -3.1121979531509023 C64.94354853001587 -2.7020807836069487, 64.99642728344998 -2.2919636140629955, 65.05051770250937 -1.872449005199798 M64.89066977658177 -3.1121979531509023 C64.92333180171885 -2.858877736034188, 64.95599382685592 -2.605557518917474, 65.05051770250937 -1.872449005199798 M65.05051770250937 -1.872449005199798 C65.08030482737328 -1.408490491709937, 65.1100919522372 -0.9445319782200762, 65.13060621591342 -0.6250057626472757 M65.05051770250937 -1.872449005199798 C65.08171223898177 -1.3865689198655176, 65.11290677545416 -0.9006888345312374, 65.13060621591342 -0.6250057626472757 M65.13060621591342 -0.6250057626472757 C65.13060621591342 -0.20486525193502214, 65.13060621591342 0.21527525877723142, 65.13060621591342 0.625005762647271 M65.13060621591342 -0.6250057626472757 C65.13060621591342 -0.13661654059820333, 65.13060621591342 0.35177268145086904, 65.13060621591342 0.625005762647271 M65.13060621591342 0.625005762647271 C65.10389370708315 1.0410746496276813, 65.07718119825289 1.4571435366080916, 65.05051770250937 1.8724490051997846 M65.13060621591342 0.625005762647271 C65.10151490031065 1.0781264852476733, 65.07242358470788 1.5312472078480754, 65.05051770250937 1.8724490051997846 M65.05051770250937 1.8724490051997846 C64.9897218538025 2.3439696022720087, 64.92892600509563 2.8154901993442327, 64.89066977658177 3.1121979531508885 M65.05051770250937 1.8724490051997846 C65.01706327057319 2.131914972971992, 64.98360883863701 2.3913809407441993, 64.89066977658177 3.1121979531508885 M64.89066977658177 3.1121979531508885 C64.80570517829814 3.5484732080631836, 64.72074058001449 3.984748462975479, 64.65171928754556 4.339158212148129 M64.89066977658177 3.1121979531508885 C64.8036811410241 3.558866211684939, 64.71669250546641 4.00553447021899, 64.65171928754556 4.339158212148129 M64.65171928754556 4.339158212148129 C64.55159540074672 4.720973986479167, 64.45147151394787 5.1027897608102055, 64.33464813421489 5.548287939305125 M64.65171928754556 4.339158212148129 C64.55465934867931 4.709289825088775, 64.45759940981304 5.0794214380294225, 64.33464813421489 5.548287939305125 M64.33464813421489 5.548287939305125 C64.25487178013191 5.788561607167153, 64.17509542604894 6.028835275029181, 63.940759229970325 6.734618561215495 M64.33464813421489 5.548287939305125 C64.24495219892385 5.818437805295196, 64.15525626363282 6.088587671285268, 63.940759229970325 6.734618561215495 M63.940759229970325 6.734618561215495 C63.76382974809892 7.171637802136689, 63.58690026622752 7.6086570430578835, 63.47167114880834 7.893275190886679 M63.940759229970325 6.734618561215495 C63.7913961048594 7.103548367979053, 63.64203297974848 7.472478174742612, 63.47167114880834 7.893275190886679 M63.47167114880834 7.893275190886679 C63.317136857526556 8.214168953237444, 63.16260256624478 8.535062715588207, 62.929311474273504 9.019496659696284 M63.47167114880834 7.893275190886679 C63.26549808861838 8.321397961767934, 63.05932502842842 8.749520732649188, 62.929311474273504 9.019496659696284 M62.929311474273504 9.019496659696284 C62.77528990333725 9.292977555268871, 62.621268332400994 9.56645845084146, 62.31590887860425 10.108655082055236 M62.929311474273504 9.019496659696284 C62.723122587416114 9.385605907200395, 62.51693370055873 9.751715154704506, 62.31590887860425 10.108655082055236 M62.31590887860425 10.108655082055236 C62.10670911902166 10.430042090775208, 61.89750935943906 10.751429099495178, 61.63398396464064 11.156274872382301 M62.31590887860425 10.108655082055236 C62.15493733571201 10.355950598849315, 61.99396579281978 10.603246115643396, 61.63398396464064 11.156274872382301 M61.63398396464064 11.156274872382301 C61.46931992280432 11.376909687240166, 61.304655880967985 11.59754450209803, 60.88633890812658 12.158051136245302 M61.63398396464064 11.156274872382301 C61.3466972064412 11.541212956007469, 61.059410448241756 11.926151039632638, 60.88633890812658 12.158051136245302 M60.88633890812658 12.158051136245302 C60.60020380086964 12.494161714778139, 60.31406869361271 12.830272293310976, 60.07604594296866 13.10986736009567 M60.88633890812658 12.158051136245302 C60.69059194399918 12.387986658627138, 60.494844979871786 12.617922181008977, 60.07604594296866 13.10986736009567 M60.07604594296866 13.10986736009567 C59.86267224510389 13.33019322144744, 59.64929854723911 13.550519082799209, 59.20643473676799 14.007812326905684 M60.07604594296866 13.10986736009567 C59.772851732733024 13.42294027487157, 59.46965752249738 13.736013189647469, 59.20643473676799 14.007812326905684 M59.20643473676799 14.007812326905684 C58.89305948697592 14.292411437312088, 58.579684237183855 14.577010547718492, 58.28107870850189 14.848196188198111 M59.20643473676799 14.007812326905684 C58.99374920450715 14.200967699954168, 58.781063672246304 14.394123073002653, 58.28107870850189 14.848196188198111 M58.28107870850189 14.848196188198111 C57.93083372760175 15.127507240055593, 57.58058874670162 15.406818291913076, 57.30378034457871 15.627565626425152 M58.28107870850189 14.848196188198111 C57.97114704122142 15.095358445226235, 57.66121537394096 15.34252070225436, 57.30378034457871 15.627565626425152 M57.30378034457871 15.627565626425152 C56.99089901265055 15.845818099163678, 56.67801768072239 16.064070571902203, 56.27855557360571 16.34271804539089 M57.30378034457871 15.627565626425152 C56.99555558912045 15.842569872998224, 56.68733083366218 16.057574119571296, 56.27855557360571 16.34271804539089 M56.27855557360571 16.34271804539089 C56.008157589605524 16.506634892326733, 55.73775960560535 16.670551739262574, 55.20961726407678 16.990714730406093 M56.27855557360571 16.34271804539089 C55.93428270172476 16.55141828349708, 55.590009829843815 16.760118521603275, 55.20961726407678 16.990714730406093 M55.20961726407678 16.990714730406093 C54.84599373157297 17.180416894401347, 54.48237019906915 17.370119058396597, 54.10135791279239 17.56889292409717 M55.20961726407678 16.990714730406093 C54.78961800957932 17.209828072455057, 54.36961875508186 17.428941414504024, 54.10135791279239 17.56889292409717 M54.10135791279239 17.56889292409717 C53.6833619741851 17.75392732670965, 53.265366035577806 17.93896172932213, 52.958331595147804 18.07487676824742 M54.10135791279239 17.56889292409717 C53.693829580686696 17.74929362782191, 53.286301248581005 17.929694331546646, 52.958331595147804 18.07487676824742 M52.958331595147804 18.07487676824742 C52.706114017455874 18.16769516831178, 52.45389643976395 18.26051356837614, 51.78523525146062 18.506587066708033 M52.958331595147804 18.07487676824742 C52.56132586462351 18.220978546961103, 52.16432013409923 18.367080325674785, 51.78523525146062 18.506587066708033 M51.78523525146062 18.506587066708033 C51.52156828903378 18.58484203714019, 51.25790132660694 18.66309700757235, 50.58688938623541 18.86224982926107 M51.78523525146062 18.506587066708033 C51.483716100902 18.596076367887513, 51.18219695034339 18.685565669066992, 50.58688938623541 18.86224982926107 M50.58688938623541 18.86224982926107 C50.15047928928443 18.961857586048104, 49.714069192333454 19.061465342835138, 49.368218259676766 19.140403561325773 M50.58688938623541 18.86224982926107 C50.19945666554273 18.950678819524395, 49.81202394485006 19.03910780978772, 49.368218259676766 19.140403561325773 M49.368218259676766 19.140403561325773 C49.053732873194114 19.191247119741693, 48.73924748671146 19.24209067815761, 48.13422965284788 19.3399052695533 M49.368218259676766 19.140403561325773 C49.093054014088295 19.18488998262192, 48.81788976849983 19.22937640391807, 48.13422965284788 19.3399052695533 M48.13422965284788 19.3399052695533 C47.794228385178386 19.372704782934026, 47.454227117508886 19.40550429631475, 46.8899942896239 19.45993515863156 M48.13422965284788 19.3399052695533 C47.68019693397071 19.383705259889144, 47.226164215093554 19.42750525022499, 46.8899942896239 19.45993515863156 M46.8899942896239 19.45993515863156 C46.53366984079432 19.47136179016206, 46.177345391964735 19.482788421692558, 45.64062500000001 19.5 M46.8899942896239 19.45993515863156 C46.52133194621372 19.471757442427002, 46.15266960280354 19.483579726222448, 45.64062500000001 19.5 M45.64062500000001 19.5 C45.64062500000001 19.5, 45.640625 19.5, 45.640625 19.5 M45.64062500000001 19.5 C45.64062500000001 19.5, 45.640625 19.5, 45.640625 19.5 M45.640625 19.5 C23.761891508365984 19.5, 1.8831580167319686 19.5, -45.64062499999999 19.5 M45.640625 19.5 C23.94087421317055 19.5, 2.2411234263410975 19.5, -45.64062499999999 19.5 M-45.64062499999999 19.5 C-46.08419198383097 19.485775670179297, -46.527758967661946 19.471551340358598, -46.88999428962389 19.45993515863156 M-45.64062499999999 19.5 C-46.001092461373254 19.48844051012111, -46.36155992274652 19.476881020242217, -46.88999428962389 19.45993515863156 M-46.88999428962389 19.45993515863156 C-47.169329341149464 19.43298804216044, -47.44866439267504 19.406040925689314, -48.13422965284787 19.3399052695533 M-46.88999428962389 19.45993515863156 C-47.23737241535096 19.42642400862599, -47.58475054107803 19.39291285862042, -48.13422965284787 19.3399052695533 M-48.13422965284787 19.3399052695533 C-48.49872967657411 19.280975732457144, -48.863229700300344 19.222046195360985, -49.36821825967676 19.140403561325773 M-48.13422965284787 19.3399052695533 C-48.60816892123632 19.263282444094173, -49.08210818962477 19.186659618635048, -49.36821825967676 19.140403561325773 M-49.36821825967676 19.140403561325773 C-49.85026939549503 19.030378535252893, -50.33232053131331 18.92035350918001, -50.586889386235384 18.862249829261074 M-49.36821825967676 19.140403561325773 C-49.62290707362182 19.082272501542644, -49.87759588756688 19.024141441759518, -50.586889386235384 18.862249829261074 M-50.586889386235384 18.862249829261074 C-51.02396390905806 18.732528405138293, -51.46103843188074 18.60280698101551, -51.78523525146059 18.506587066708043 M-50.586889386235384 18.862249829261074 C-51.011547963447676 18.736213392622826, -51.43620654065996 18.610176955984578, -51.78523525146059 18.506587066708043 M-51.78523525146059 18.506587066708043 C-52.049551989016685 18.409316063970262, -52.31386872657277 18.312045061232485, -52.9583315951478 18.074876768247425 M-51.78523525146059 18.506587066708043 C-52.059948505042414 18.405490049968453, -52.334661758624236 18.304393033228866, -52.9583315951478 18.074876768247425 M-52.9583315951478 18.074876768247425 C-53.25380132134937 17.944081085256002, -53.54927104755094 17.81328540226458, -54.10135791279238 17.568892924097174 M-52.9583315951478 18.074876768247425 C-53.19299062502454 17.971000176633787, -53.427649654901295 17.86712358502015, -54.10135791279238 17.568892924097174 M-54.10135791279238 17.568892924097174 C-54.40576610102489 17.410083367279025, -54.710174289257395 17.25127381046088, -55.20961726407678 16.990714730406097 M-54.10135791279238 17.568892924097174 C-54.38536871976231 17.420724668018565, -54.66937952673225 17.272556411939952, -55.20961726407678 16.990714730406097 M-55.20961726407678 16.990714730406097 C-55.53938893731254 16.79080520413712, -55.86916061054829 16.59089567786814, -56.278555573605686 16.3427180453909 M-55.20961726407678 16.990714730406097 C-55.44463392990456 16.84824624647007, -55.67965059573234 16.70577776253404, -56.278555573605686 16.3427180453909 M-56.278555573605686 16.3427180453909 C-56.66030949498075 16.07642303570056, -57.042063416355816 15.810128026010222, -57.30378034457871 15.627565626425156 M-56.278555573605686 16.3427180453909 C-56.60361222446488 16.115972597227152, -56.92866887532407 15.889227149063403, -57.30378034457871 15.627565626425156 M-57.30378034457871 15.627565626425156 C-57.530432541584354 15.446816530781424, -57.757084738589995 15.266067435137693, -58.281078708501866 14.848196188198125 M-57.30378034457871 15.627565626425156 C-57.643187374769404 15.35689755184847, -57.9825944049601 15.08622947727178, -58.281078708501866 14.848196188198125 M-58.281078708501866 14.848196188198125 C-58.47502934740928 14.672055349595107, -58.66897998631671 14.495914510992089, -59.206434736767974 14.007812326905697 M-58.281078708501866 14.848196188198125 C-58.523266476043396 14.628247665654092, -58.765454243584934 14.408299143110057, -59.206434736767974 14.007812326905697 M-59.206434736767974 14.007812326905697 C-59.49913092822919 13.705579478417759, -59.79182711969041 13.403346629929823, -60.076045942968655 13.109867360095677 M-59.206434736767974 14.007812326905697 C-59.50045909022338 13.704208042114635, -59.79448344367878 13.400603757323575, -60.076045942968655 13.109867360095677 M-60.076045942968655 13.109867360095677 C-60.371321075029286 12.763020388346273, -60.66659620708992 12.416173416596871, -60.886338908126575 12.158051136245307 M-60.076045942968655 13.109867360095677 C-60.30035725428853 12.846378530144158, -60.5246685656084 12.58288970019264, -60.886338908126575 12.158051136245307 M-60.886338908126575 12.158051136245307 C-61.12369854966788 11.840010840488155, -61.36105819120918 11.521970544731001, -61.633983964640635 11.156274872382316 M-60.886338908126575 12.158051136245307 C-61.113501751574475 11.853673620985893, -61.34066459502238 11.54929610572648, -61.633983964640635 11.156274872382316 M-61.633983964640635 11.156274872382316 C-61.81121345002264 10.884002790055117, -61.98844293540464 10.611730707727917, -62.31590887860425 10.108655082055249 M-61.633983964640635 11.156274872382316 C-61.81951417555016 10.871250646587942, -62.00504438645969 10.586226420793569, -62.31590887860425 10.108655082055249 M-62.31590887860425 10.108655082055249 C-62.55209509962443 9.68928253018562, -62.78828132064462 9.269909978315992, -62.929311474273504 9.019496659696289 M-62.31590887860425 10.108655082055249 C-62.52282130788408 9.74126111171347, -62.72973373716391 9.373867141371692, -62.929311474273504 9.019496659696289 M-62.929311474273504 9.019496659696289 C-63.13223941401836 8.598112450853764, -63.335167353763204 8.176728242011237, -63.47167114880834 7.893275190886686 M-62.929311474273504 9.019496659696289 C-63.06565291986537 8.736380730685179, -63.20199436545723 8.453264801674067, -63.47167114880834 7.893275190886686 M-63.47167114880834 7.893275190886686 C-63.58927263672194 7.602797242070014, -63.70687412463553 7.312319293253341, -63.940759229970325 6.73461856121551 M-63.47167114880834 7.893275190886686 C-63.59568221152769 7.586965468379111, -63.719693274247035 7.280655745871536, -63.940759229970325 6.73461856121551 M-63.940759229970325 6.73461856121551 C-64.07146044469599 6.3409673268723585, -64.20216165942166 5.947316092529208, -64.33464813421489 5.5482879393051325 M-63.940759229970325 6.73461856121551 C-64.03346286349426 6.455409987359572, -64.12616649701819 6.176201413503634, -64.33464813421489 5.5482879393051325 M-64.33464813421489 5.5482879393051325 C-64.40840773496403 5.267010614035467, -64.48216733571317 4.9857332887658, -64.65171928754556 4.339158212148136 M-64.33464813421489 5.5482879393051325 C-64.4122951014698 5.25218640075371, -64.48994206872469 4.956084862202288, -64.65171928754556 4.339158212148136 M-64.65171928754556 4.339158212148136 C-64.71957158546986 3.9907510028950934, -64.78742388339415 3.642343793642051, -64.89066977658177 3.112197953150904 M-64.65171928754556 4.339158212148136 C-64.72290812757589 3.9736185643590676, -64.79409696760622 3.6080789165699994, -64.89066977658177 3.112197953150904 M-64.89066977658177 3.112197953150904 C-64.92426327003302 2.851653451728676, -64.95785676348426 2.591108950306448, -65.05051770250937 1.872449005199809 M-64.89066977658177 3.112197953150904 C-64.94071246991331 2.7240767057190856, -64.99075516324484 2.3359554582872675, -65.05051770250937 1.872449005199809 M-65.05051770250937 1.872449005199809 C-65.07979936292182 1.416363508544931, -65.10908102333428 0.9602780118900534, -65.13060621591342 0.6250057626472781 M-65.05051770250937 1.872449005199809 C-65.06658685996231 1.6221589070797933, -65.08265601741525 1.3718688089597775, -65.13060621591342 0.6250057626472781 M-65.13060621591342 0.6250057626472781 C-65.13060621591342 0.23012718844811808, -65.13060621591342 -0.16475138575104198, -65.13060621591342 -0.6250057626472687 M-65.13060621591342 0.6250057626472781 C-65.13060621591342 0.3426062030042537, -65.13060621591342 0.06020664336122927, -65.13060621591342 -0.6250057626472687 M-65.13060621591342 -0.6250057626472687 C-65.10521633545488 -1.0204736451315066, -65.07982645499635 -1.4159415276157445, -65.05051770250937 -1.8724490051997822 M-65.13060621591342 -0.6250057626472687 C-65.10484254845159 -1.026295679423264, -65.07907888098977 -1.4275855961992594, -65.05051770250937 -1.8724490051997822 M-65.05051770250937 -1.8724490051997822 C-65.01177121718193 -2.172959094040367, -64.97302473185451 -2.473469182880952, -64.89066977658177 -3.112197953150895 M-65.05051770250937 -1.8724490051997822 C-65.00065095107811 -2.2592056819967286, -64.95078419964685 -2.645962358793675, -64.89066977658177 -3.112197953150895 M-64.89066977658177 -3.112197953150895 C-64.79524340624593 -3.6021921964549533, -64.69981703591009 -4.092186439759011, -64.65171928754556 -4.339158212148126 M-64.89066977658177 -3.112197953150895 C-64.82614275695046 -3.4435305611672944, -64.76161573731913 -3.7748631691836936, -64.65171928754556 -4.339158212148126 M-64.65171928754556 -4.339158212148126 C-64.5344505657204 -4.7863546730529745, -64.41718184389526 -5.233551133957823, -64.33464813421489 -5.548287939305123 M-64.65171928754556 -4.339158212148126 C-64.56463686060656 -4.671241247829132, -64.47755443366755 -5.003324283510137, -64.33464813421489 -5.548287939305123 M-64.33464813421489 -5.548287939305123 C-64.22287489540949 -5.8849311259398345, -64.11110165660409 -6.221574312574546, -63.94075922997033 -6.734618561215485 M-64.33464813421489 -5.548287939305123 C-64.24774656223242 -5.81002162823112, -64.16084499024996 -6.071755317157118, -63.94075922997033 -6.734618561215485 M-63.94075922997033 -6.734618561215485 C-63.83430983232338 -6.997550631462549, -63.72786043467643 -7.2604827017096145, -63.47167114880834 -7.893275190886676 M-63.94075922997033 -6.734618561215485 C-63.79677566631654 -7.090260747173177, -63.65279210266275 -7.445902933130869, -63.47167114880834 -7.893275190886676 M-63.47167114880834 -7.893275190886676 C-63.346412226290624 -8.153378023606319, -63.2211533037729 -8.413480856325961, -62.929311474273504 -9.019496659696282 M-63.47167114880834 -7.893275190886676 C-63.33057883677949 -8.186256395706447, -63.18948652475064 -8.47923760052622, -62.929311474273504 -9.019496659696282 M-62.929311474273504 -9.019496659696282 C-62.74035305339668 -9.355011470078031, -62.55139463251985 -9.69052628045978, -62.31590887860425 -10.108655082055243 M-62.929311474273504 -9.019496659696282 C-62.79710525607535 -9.254242187438374, -62.66489903787719 -9.488987715180468, -62.31590887860425 -10.108655082055243 M-62.31590887860425 -10.108655082055243 C-62.10858166617637 -10.427165355496257, -61.90125445374849 -10.745675628937272, -61.63398396464064 -11.156274872382308 M-62.31590887860425 -10.108655082055243 C-62.12980581116781 -10.394559369308466, -61.94370274373138 -10.68046365656169, -61.63398396464064 -11.156274872382308 M-61.63398396464064 -11.156274872382308 C-61.39474468731196 -11.476833708856208, -61.155505409983284 -11.797392545330109, -60.88633890812659 -12.158051136245302 M-61.63398396464064 -11.156274872382308 C-61.355669925870735 -11.529190329403452, -61.07735588710083 -11.902105786424595, -60.88633890812659 -12.158051136245302 M-60.88633890812659 -12.158051136245302 C-60.602345479924324 -12.491645976695526, -60.318352051722066 -12.82524081714575, -60.07604594296866 -13.10986736009567 M-60.88633890812659 -12.158051136245302 C-60.7093567028102 -12.365944505182705, -60.532374497493805 -12.573837874120107, -60.07604594296866 -13.10986736009567 M-60.07604594296866 -13.10986736009567 C-59.76727122938647 -13.428702602744723, -59.45849651580429 -13.747537845393776, -59.206434736767996 -14.007812326905677 M-60.07604594296866 -13.10986736009567 C-59.83433451117134 -13.359454258304016, -59.59262307937402 -13.609041156512363, -59.206434736767996 -14.007812326905677 M-59.206434736767996 -14.007812326905677 C-58.8606933194363 -14.321805534309703, -58.514951902104606 -14.635798741713732, -58.28107870850189 -14.848196188198107 M-59.206434736767996 -14.007812326905677 C-59.003570695169316 -14.192048081997186, -58.80070665357064 -14.376283837088693, -58.28107870850189 -14.848196188198107 M-58.28107870850189 -14.848196188198107 C-57.99532030629488 -15.07608090960775, -57.70956190408788 -15.303965631017393, -57.30378034457872 -15.627565626425149 M-58.28107870850189 -14.848196188198107 C-57.8975773437054 -15.154028321223393, -57.514075978908906 -15.459860454248679, -57.30378034457872 -15.627565626425149 M-57.30378034457872 -15.627565626425149 C-56.93833489290831 -15.882484553631798, -56.5728894412379 -16.137403480838447, -56.278555573605715 -16.342718045390885 M-57.30378034457872 -15.627565626425149 C-57.046987083347496 -15.806693489058938, -56.790193822116265 -15.98582135169273, -56.278555573605715 -16.342718045390885 M-56.278555573605715 -16.342718045390885 C-56.02889072045554 -16.494066346564054, -55.779225867305364 -16.645414647737223, -55.20961726407679 -16.99071473040609 M-56.278555573605715 -16.342718045390885 C-55.93432529417738 -16.551392463702005, -55.59009501474904 -16.760066882013124, -55.20961726407679 -16.99071473040609 M-55.20961726407679 -16.99071473040609 C-54.93114557389448 -17.13599323280457, -54.65267388371218 -17.281271735203045, -54.10135791279239 -17.56889292409717 M-55.20961726407679 -16.99071473040609 C-54.96345122999388 -17.119139392710274, -54.71728519591097 -17.247564055014458, -54.10135791279239 -17.56889292409717 M-54.10135791279239 -17.56889292409717 C-53.68675933965646 -17.752423413794745, -53.27216076652053 -17.93595390349232, -52.958331595147804 -18.07487676824742 M-54.10135791279239 -17.56889292409717 C-53.65529417625305 -17.766352108252526, -53.209230439713714 -17.96381129240788, -52.958331595147804 -18.07487676824742 M-52.958331595147804 -18.07487676824742 C-52.535946510634815 -18.23031838383312, -52.113561426121834 -18.38575999941882, -51.78523525146062 -18.506587066708033 M-52.958331595147804 -18.07487676824742 C-52.52537995834681 -18.234206972751245, -52.092428321545825 -18.393537177255066, -51.78523525146062 -18.506587066708033 M-51.78523525146062 -18.506587066708033 C-51.44315601966672 -18.60811438709393, -51.10107678787283 -18.70964170747983, -50.58688938623541 -18.862249829261067 M-51.78523525146062 -18.506587066708033 C-51.45005063818485 -18.60606810050834, -51.114866024909084 -18.70554913430865, -50.58688938623541 -18.862249829261067 M-50.58688938623541 -18.862249829261067 C-50.114709339557415 -18.970021843652557, -49.642529292879416 -19.077793858044046, -49.368218259676766 -19.140403561325773 M-50.58688938623541 -18.862249829261067 C-50.238591087873736 -18.941746643003313, -49.89029278951206 -19.021243456745562, -49.368218259676766 -19.140403561325773 M-49.368218259676766 -19.140403561325773 C-48.995986518348275 -19.200583102563495, -48.623754777019776 -19.260762643801222, -48.13422965284788 -19.3399052695533 M-49.368218259676766 -19.140403561325773 C-49.001352009860064 -19.19971565150588, -48.634485760043354 -19.259027741685987, -48.13422965284788 -19.3399052695533 M-48.13422965284788 -19.3399052695533 C-47.828623854308994 -19.369386693393597, -47.52301805577011 -19.3988681172339, -46.8899942896239 -19.45993515863156 M-48.13422965284788 -19.3399052695533 C-47.66978351022495 -19.384709830353923, -47.20533736760202 -19.429514391154548, -46.8899942896239 -19.45993515863156 M-46.8899942896239 -19.45993515863156 C-46.52646788415804 -19.471592742893627, -46.162941478692176 -19.483250327155694, -45.64062500000001 -19.5 M-46.8899942896239 -19.45993515863156 C-46.525918295104546 -19.471610367144862, -46.1618423005852 -19.483285575658165, -45.64062500000001 -19.5 M-45.64062500000001 -19.5 C-45.64062500000001 -19.5, -45.640625 -19.5, -45.640625 -19.5 M-45.64062500000001 -19.5 C-45.64062500000001 -19.5, -45.640625 -19.5, -45.640625 -19.5" stroke="#9370DB" stroke-width="1.3" fill="none" stroke-dasharray="0 0" style=""/></g><g class="label" style="" transform="translate(-52.765625, -12)"><rect/><foreignObject width="105.53125" height="24"><div xmlns="http://www.w3.org/1999/xhtml" style="display: table-cell; white-space: nowrap; line-height: 1.5; max-width: 200px; text-align: center;"><span class="nodeLabel"><p>HTTP Request</p></span></div></foreignObject></g></g><g class="node default" id="my-svg-flowchart-PG-1" data-look="classic" transform="translate(1897.09375, 996)"><path d="M0,11.242949511624708 a51.078125,11.242949511624708 0,0,0 102.15625,0 a51.078125,11.242949511624708 0,0,0 -102.15625,0 l0,50.24294951162471 a51.078125,11.242949511624708 0,0,0 102.15625,0 l0,-50.24294951162471" class="basic label-container outer-path" style="" transform="translate(-51.078125, -36.36442426743706)"/><g class="label" style="" transform="translate(-43.578125, -2)"><rect/><foreignObject width="87.15625" height="24"><div xmlns="http://www.w3.org/1999/xhtml" style="display: table-cell; white-space: nowrap; line-height: 1.5; max-width: 200px; text-align: center;"><span class="nodeLabel"><p>PostgreSQL</p></span></div></foreignObject></g></g><g class="node default" id="my-svg-flowchart-GH-2" data-look="classic" transform="translate(1915.59375, 698)"><rect class="basic label-container" style="" x="-69.578125" y="-27" width="139.15625" height="54"/><g class="label" style="" transform="translate(-39.578125, -12)"><rect/><foreignObject width="79.15625" height="24"><div xmlns="http://www.w3.org/1999/xhtml" style="display: table-cell; white-space: nowrap; line-height: 1.5; max-width: 200px; text-align: center;"><span class="nodeLabel"><p>GitHub API</p></span></div></foreignObject></g></g><g class="node default" id="my-svg-flowchart-EMAIL-3" data-look="classic" transform="translate(2060.3984375, 996)"><rect class="basic label-container" style="" x="-62.2265625" y="-27" width="124.453125" height="54"/><g class="label" style="" transform="translate(-32.2265625, -12)"><rect/><foreignObject width="64.453125" height="24"><div xmlns="http://www.w3.org/1999/xhtml" style="display: table-cell; white-space: nowrap; line-height: 1.5; max-width: 200px; text-align: center;"><span class="nodeLabel"><p>📧 Email</p></span></div></foreignObject></g></g><g class="node default" id="my-svg-flowchart-DOM-4" data-look="classic" transform="translate(568.5625, 996)"><rect class="basic label-container" style="" x="-130" y="-123" width="260" height="246"/><g class="label" style="" transform="translate(-100, -108)"><rect/><foreignObject width="200" height="216"><div xmlns="http://www.w3.org/1999/xhtml" style="display: table; white-space: break-spaces; line-height: 1.5; max-width: 200px; text-align: center; width: 200px;"><span class="nodeLabel"><p>Repository · Subscription · Release<br />ErrNotFound · ErrAlreadyExists · ErrTokenConflict<br />ErrRateLimited · ErrUnauthorized<br />ValidateEmail · ValidateRepo</p></span></div></foreignObject></g></g><g class="node default" id="my-svg-flowchart-H-5" data-look="classic" transform="translate(241.46875, 198)"><rect class="basic label-container" style="" x="-130" y="-51" width="260" height="102"/><g class="label" style="" transform="translate(-100, -36)"><rect/><foreignObject width="200" height="72"><div xmlns="http://www.w3.org/1999/xhtml" style="display: table; white-space: break-spaces; line-height: 1.5; max-width: 200px; text-align: center; width: 200px;"><span class="nodeLabel"><p>Handler<br />Subscribe · Confirm · Unsubscribe · List</p></span></div></foreignObject></g></g><g class="node default" id="my-svg-flowchart-S-6" data-look="classic" transform="translate(624.87109375, 448)"><rect class="basic label-container" style="" x="-166.9375" y="-75" width="333.875" height="150"/><g class="label" style="" transform="translate(-136.9375, -60)"><rect/><foreignObject width="273.875" height="120"><div xmlns="http://www.w3.org/1999/xhtml" style="display: table; white-space: break-spaces; line-height: 1.5; max-width: 200px; text-align: center; width: 200px;"><span class="nodeLabel"><p>subscriptionService<br />subscribe · confirm · unsubscribe · list<br />ensureRepository — owns repo lifecycle<br />createRepositoryWithConflictRecovery</p></span></div></foreignObject></g></g><g class="node default" id="my-svg-flowchart-SS-7" data-look="classic" transform="translate(652.15625, 698)"><rect class="basic label-container" style="" x="-112.265625" y="-27" width="224.53125" height="54"/><g class="label" style="" transform="translate(-82.265625, -12)"><rect/><foreignObject width="164.53125" height="24"><div xmlns="http://www.w3.org/1999/xhtml" style="display: table-cell; white-space: nowrap; line-height: 1.5; max-width: 200px; text-align: center;"><span class="nodeLabel"><p>SubscriptionRepository</p></span></div></foreignObject></g></g><g class="node default" id="my-svg-flowchart-RS-8" data-look="classic" transform="translate(901.7890625, 698)"><rect class="basic label-container" style="" x="-87.3671875" y="-27" width="174.734375" height="54"/><g class="label" style="" transform="translate(-57.3671875, -12)"><rect/><foreignObject width="114.734375" height="24"><div xmlns="http://www.w3.org/1999/xhtml" style="display: table-cell; white-space: nowrap; line-height: 1.5; max-width: 200px; text-align: center;"><span class="nodeLabel"><p>RepoRepository</p></span></div></foreignObject></g></g><g class="node default" id="my-svg-flowchart-M-9" data-look="classic" transform="translate(1288.49609375, 698)"><rect class="basic label-container" style="" x="-130" y="-51" width="260" height="102"/><g class="label" style="" transform="translate(-100, -36)"><rect/><foreignObject width="200" height="72"><div xmlns="http://www.w3.org/1999/xhtml" style="display: table; white-space: break-spaces; line-height: 1.5; max-width: 200px; text-align: center; width: 200px;"><span class="nodeLabel"><p>SMTPService<br />SendConfirmationEmail · SendReleaseEmail</p></span></div></foreignObject></g></g><g class="node default" id="my-svg-flowchart-W-10" data-look="classic" transform="translate(1337.0703125, 198)"><rect class="basic label-container" style="" x="-104.984375" y="-27" width="209.96875" height="54"/><g class="label" style="" transform="translate(-74.984375, -12)"><rect/><foreignObject width="149.96875" height="24"><div xmlns="http://www.w3.org/1999/xhtml" style="display: table-cell; white-space: nowrap; line-height: 1.5; max-width: 200px; text-align: center;"><span class="nodeLabel"><p>Worker — every 25 s</p></span></div></foreignObject></g></g><g class="node default" id="my-svg-flowchart-RN-11" data-look="classic" transform="translate(1253.4296875, 448)"><rect class="basic label-container" style="" x="-84.6953125" y="-27" width="169.390625" height="54"/><g class="label" style="" transform="translate(-54.6953125, -12)"><rect/><foreignObject width="109.390625" height="24"><div xmlns="http://www.w3.org/1999/xhtml" style="display: table-cell; white-space: nowrap; line-height: 1.5; max-width: 200px; text-align: center;"><span class="nodeLabel"><p>ReleaseNotifier</p></span></div></foreignObject></g></g></g></g></g><defs><filter id="my-svg-drop-shadow" height="130%" width="130%"><feDropShadow dx="4" dy="4" stdDeviation="0" flood-opacity="0.06" flood-color="#000000"/></filter></defs><defs><filter id="my-svg-drop-shadow-small" height="150%" width="150%"><feDropShadow dx="2" dy="2" stdDeviation="0" flood-opacity="0.06" flood-color="#000000"/></filter></defs></svg>